<?xml version="1.0" encoding="UTF-8"?>
<!DOCTYPE svg PUBLIC "-//W3C//DTD SVG 1.1//EN" "http://www.w3.org/Graphics/SVG/1.1/DTD/svg11.dtd">
<svg xmlns="http://www.w3.org/2000/svg" version="1.1" width="320px" height="200px" style="shape-rendering:geometricPrecision; text-rendering:geometricPrecision; image-rendering:optimizeQuality; fill-rule:evenodd; clip-rule:evenodd" xmlns:xlink="http://www.w3.org/1999/xlink">
<g><path style="opacity:0.647" fill="#514f58" d="M 236.5,-0.5 C 256.167,-0.5 275.833,-0.5 295.5,-0.5C 295.539,0.583168 295.873,1.58317 296.5,2.5C 292.685,4.29594 288.685,5.62927 284.5,6.5C 283.143,8.18561 281.81,9.85228 280.5,11.5C 279.566,12.5676 279.232,13.901 279.5,15.5C 276.458,16.5411 273.458,16.5411 270.5,15.5C 269.497,12.9999 267.663,11.3332 265,10.5C 259.453,9.71187 253.953,9.71187 248.5,10.5C 247.596,11.209 247.263,12.209 247.5,13.5C 246.5,13.5 245.5,13.5 244.5,13.5C 243.521,14.7653 242.521,16.0986 241.5,17.5C 239.833,17.1667 238.833,16.1667 238.5,14.5C 239.141,11.9956 240.141,9.32894 241.5,6.5C 239.997,4.57841 237.997,3.41174 235.5,3C 236.337,1.98873 236.67,0.822066 236.5,-0.5 Z"/></g>
<g><path style="opacity:0.647" fill="#847b7e" d="M 191.5,-0.5 C 198.167,-0.5 204.833,-0.5 211.5,-0.5C 207.311,1.64412 202.978,3.64412 198.5,5.5C 198.719,4.32496 198.386,3.32496 197.5,2.5C 196.583,3.12723 195.583,3.46056 194.5,3.5C 192.738,2.73769 191.738,1.40435 191.5,-0.5 Z"/></g>
<g><path style="opacity:0.647" fill="#a19899" d="M -0.5,-0.5 C 13.8333,-0.5 28.1667,-0.5 42.5,-0.5C 42.6463,1.94238 41.813,2.60905 40,1.5C 39.338,3.81268 38.838,6.14602 38.5,8.5C 37.1779,8.66997 36.0113,8.33663 35,7.5C 32.6405,9.24991 29.9739,10.2499 27,10.5C 22.8528,9.87726 18.6861,9.54393 14.5,9.5C 14.5,8.16667 14.5,6.83333 14.5,5.5C 13.1667,5.5 11.8333,5.5 10.5,5.5C 10.67,6.82207 10.3366,7.98873 9.5,9C 6.14643,9.45518 2.8131,9.95518 -0.5,10.5C -0.5,6.83333 -0.5,3.16667 -0.5,-0.5 Z"/></g>
<g><path style="opacity:0.647" fill="#4b4952" d="M 45.5,-0.5 C 94.1667,-0.5 142.833,-0.5 191.5,-0.5C 191.738,1.40435 192.738,2.73769 194.5,3.5C 194.376,5.5816 193.376,7.0816 191.5,8C 192.451,8.71752 192.617,9.55085 192,10.5C 190.333,10.1667 188.667,9.83333 187,9.5C 185.392,11.0996 183.559,12.433 181.5,13.5C 180.676,11.2524 179.676,11.0858 178.5,13C 178.833,13.3333 179.167,13.6667 179.5,14C 178.167,14.3333 176.833,14.6667 175.5,15C 176.458,16.1475 176.125,17.1475 174.5,18C 172.432,18.6869 170.432,18.5202 168.5,17.5C 166.111,19.507 163.444,19.8403 160.5,18.5C 160.822,16.2776 160.155,14.4443 158.5,13C 158.833,12.6667 159.167,12.3333 159.5,12C 156.867,11.1061 154.7,9.60605 153,7.5C 151.941,7.63008 151.108,8.13008 150.5,9C 151.91,9.36775 152.91,10.2011 153.5,11.5C 151.311,12.1735 149.311,13.1735 147.5,14.5C 146.201,13.91 145.368,12.91 145,11.5C 143.846,13.9574 142.512,13.9574 141,11.5C 139.013,12.218 137.179,13.218 135.5,14.5C 132.939,13.5471 130.106,13.5471 127,14.5C 122.619,12.5636 118.285,12.2303 114,13.5C 110.782,13.0643 107.616,12.3976 104.5,11.5C 105.506,10.6043 105.506,9.93767 104.5,9.5C 100.087,9.98065 97.4202,11.9806 96.5,15.5C 95.1521,13.5387 93.8187,13.3721 92.5,15C 92.8333,15.3333 93.1667,15.6667 93.5,16C 92.2341,16.3095 91.0674,16.8095 90,17.5C 89.6121,16.572 88.9454,15.9054 88,15.5C 85.2664,17.3654 82.2664,18.6988 79,19.5C 77.779,18.7282 76.779,17.7282 76,16.5C 75.2515,18.3325 74.2515,19.9991 73,21.5C 71.6015,20.9491 70.2682,20.6158 69,20.5C 68.6667,21.1667 68.3333,21.8333 68,22.5C 66.9384,21.1007 65.605,20.1007 64,19.5C 62.2041,19.9126 60.5374,19.9126 59,19.5C 58.3828,20.4491 58.5494,21.2825 59.5,22C 57.925,21.621 56.425,21.7877 55,22.5C 53.3066,18.3707 51.6399,18.0373 50,21.5C 48.28,18.9045 45.78,17.4045 42.5,17C 46.7818,16.9143 48.4485,15.081 47.5,11.5C 46.7057,9.12718 45.7057,6.79384 44.5,4.5C 45.3094,2.92908 45.6427,1.26241 45.5,-0.5 Z"/></g>
<g><path style="opacity:0.647" fill="#a7a0a4" d="M 211.5,-0.5 C 214.5,-0.5 217.5,-0.5 220.5,-0.5C 218.572,1.47406 216.239,2.97406 213.5,4C 214.756,4.41691 215.423,5.25025 215.5,6.5C 214.833,6.5 214.167,6.5 213.5,6.5C 211.563,5.51179 209.563,4.51179 207.5,3.5C 206.833,3.83333 206.167,4.16667 205.5,4.5C 207.333,5.96844 207.666,7.6351 206.5,9.5C 202.653,7.28351 198.653,6.95018 194.5,8.5C 194.694,6.08824 196.027,5.08824 198.5,5.5C 202.978,3.64412 207.311,1.64412 211.5,-0.5 Z"/></g>
<g><path style="opacity:0.647" fill="#c0babc" d="M 295.5,-0.5 C 303.5,-0.5 311.5,-0.5 319.5,-0.5C 319.5,10.8333 319.5,22.1667 319.5,33.5C 315.074,31.7268 310.408,30.5602 305.5,30C 304.619,29.2917 303.953,28.4584 303.5,27.5C 304.185,25.5856 304.685,23.5856 305,21.5C 306.544,19.6308 308.044,17.7975 309.5,16C 308.021,12.9993 305.854,12.166 303,13.5C 302.517,14.448 302.351,15.448 302.5,16.5C 301.167,16.5 299.833,16.5 298.5,16.5C 298.33,15.1779 298.663,14.0113 299.5,13C 301.436,12.187 303.436,11.687 305.5,11.5C 305.318,8.3921 303.984,5.8921 301.5,4C 296.342,4.1328 291.342,4.96613 286.5,6.5C 286.22,9.27237 286.887,11.7724 288.5,14C 291.583,15.9253 294.917,17.092 298.5,17.5C 295.857,20.2336 294.857,23.5669 295.5,27.5C 296.5,27.5 297.5,27.5 298.5,27.5C 298.67,28.8221 298.337,29.9887 297.5,31C 293.844,32.2784 290.177,33.4451 286.5,34.5C 286.715,36.1788 286.048,37.1788 284.5,37.5C 284.217,36.7109 283.717,36.0442 283,35.5C 281.951,37.1066 280.451,37.7733 278.5,37.5C 278.5,35.8333 278.5,34.1667 278.5,32.5C 277.07,32.4208 275.736,32.7542 274.5,33.5C 271.851,29.4251 273.185,27.4251 278.5,27.5C 278.5,28.8333 278.5,30.1667 278.5,31.5C 285.334,31.3561 286.667,28.8561 282.5,24C 283.549,23.5078 284.549,23.6744 285.5,24.5C 286.382,23.2402 287.382,22.0736 288.5,21C 286.731,18.943 284.731,17.1097 282.5,15.5C 281.37,14.3777 280.703,13.0443 280.5,11.5C 281.81,9.85228 283.143,8.18561 284.5,6.5C 288.685,5.62927 292.685,4.29594 296.5,2.5C 295.873,1.58317 295.539,0.583168 295.5,-0.5 Z"/></g>
<g><path style="opacity:0.647" fill="#e1dedf" d="M 298.5,16.5 C 298.5,16.8333 298.5,17.1667 298.5,17.5C 294.917,17.092 291.583,15.9253 288.5,14C 286.887,11.7724 286.22,9.27237 286.5,6.5C 291.342,4.96613 296.342,4.1328 301.5,4C 303.984,5.8921 305.318,8.3921 305.5,11.5C 303.436,11.687 301.436,12.187 299.5,13C 298.663,14.0113 298.33,15.1779 298.5,16.5 Z"/></g>
<g><path style="opacity:0.647" fill="#776f71" d="M 42.5,-0.5 C 42.8333,-0.5 43.1667,-0.5 43.5,-0.5C 43.2065,3.43669 43.5399,7.27002 44.5,11C 42.8839,11.6152 41.5505,12.6152 40.5,14C 37.8517,14.0988 35.3517,14.2654 33,14.5C 29.435,12.7106 25.6017,12.044 21.5,12.5C 21.7093,14.7144 20.876,16.381 19,17.5C 15.9839,17.1575 12.9839,16.8242 10,16.5C 8.42983,21.7032 4.92983,24.0365 -0.5,23.5C -0.5,19.1667 -0.5,14.8333 -0.5,10.5C 2.8131,9.95518 6.14643,9.45518 9.5,9C 10.3366,7.98873 10.67,6.82207 10.5,5.5C 11.8333,5.5 13.1667,5.5 14.5,5.5C 14.5,6.83333 14.5,8.16667 14.5,9.5C 18.6861,9.54393 22.8528,9.87726 27,10.5C 29.9739,10.2499 32.6405,9.24991 35,7.5C 36.0113,8.33663 37.1779,8.66997 38.5,8.5C 38.838,6.14602 39.338,3.81268 40,1.5C 41.813,2.60905 42.6463,1.94238 42.5,-0.5 Z"/></g>
<g><path style="opacity:0.647" fill="#b8b2b4" d="M 220.5,-0.5 C 222.833,-0.5 225.167,-0.5 227.5,-0.5C 227.414,0.495904 227.748,1.32924 228.5,2C 231.79,2.05952 232.79,3.39286 231.5,6C 232.324,9.05775 233.658,9.22442 235.5,6.5C 237.217,7.66848 237.884,9.33515 237.5,11.5C 234.063,11.5519 231.063,12.7186 228.5,15C 227.643,15.6891 226.977,16.5224 226.5,17.5C 230.557,20.7503 229.89,22.7503 224.5,23.5C 225.407,29.7885 227.074,30.1218 229.5,24.5C 235.409,23.2015 241.409,22.5348 247.5,22.5C 247.539,20.6412 246.706,19.3079 245,18.5C 244.506,16.8659 244.34,15.1992 244.5,13.5C 245.5,13.5 246.5,13.5 247.5,13.5C 247.263,12.209 247.596,11.209 248.5,10.5C 252.002,13.7406 256.335,15.574 261.5,16C 258.875,18.1962 257.875,21.0295 258.5,24.5C 260.6,24.4772 262.433,25.1439 264,26.5C 265.368,25.2974 266.868,24.2974 268.5,23.5C 271.205,24.1292 273.872,24.4626 276.5,24.5C 276.833,24 277.167,23.5 277.5,23C 275.033,20.5132 272.699,18.0132 270.5,15.5C 273.458,16.5411 276.458,16.5411 279.5,15.5C 279.232,13.901 279.566,12.5676 280.5,11.5C 280.703,13.0443 281.37,14.3777 282.5,15.5C 284.731,17.1097 286.731,18.943 288.5,21C 287.382,22.0736 286.382,23.2402 285.5,24.5C 284.549,23.6744 283.549,23.5078 282.5,24C 286.667,28.8561 285.334,31.3561 278.5,31.5C 278.5,30.1667 278.5,28.8333 278.5,27.5C 273.185,27.4251 271.851,29.4251 274.5,33.5C 275.736,32.7542 277.07,32.4208 278.5,32.5C 278.5,34.1667 278.5,35.8333 278.5,37.5C 280.451,37.7733 281.951,37.1066 283,35.5C 283.717,36.0442 284.217,36.7109 284.5,37.5C 283.458,39.7385 282.125,41.9052 280.5,44C 282.886,44.2835 283.552,45.2835 282.5,47C 275.812,47.3333 269.479,48.4999 263.5,50.5C 263.5,49.5 263.5,48.5 263.5,47.5C 265.308,47.5086 266.975,47.0086 268.5,46C 267.552,45.5172 266.552,45.3505 265.5,45.5C 266.508,40.2882 264.508,38.1215 259.5,39C 257.579,39.3603 255.912,40.1936 254.5,41.5C 255.378,44.4213 255.378,47.0879 254.5,49.5C 251.562,50.5748 248.562,50.7415 245.5,50C 246.747,48.5421 246.747,47.0421 245.5,45.5C 251.816,41.4996 251.149,38.3329 243.5,36C 236.148,35.6363 228.815,35.1363 221.5,34.5C 221.703,32.9557 222.37,31.6223 223.5,30.5C 221.138,29.7285 218.804,28.8952 216.5,28C 221.384,25.4725 221.717,22.4725 217.5,19C 219.025,17.9914 220.692,17.4914 222.5,17.5C 222.351,16.448 222.517,15.448 223,14.5C 224.011,15.3366 225.178,15.67 226.5,15.5C 226.5,14.5 226.5,13.5 226.5,12.5C 229.091,11.0087 230.091,8.67532 229.5,5.5C 227.409,5.31845 225.409,5.65178 223.5,6.5C 220.865,1.3744 218.199,1.3744 215.5,6.5C 215.423,5.25025 214.756,4.41691 213.5,4C 216.239,2.97406 218.572,1.47406 220.5,-0.5 Z"/></g>
<g><path style="opacity:0.646" fill="#54525c" d="M 198.5,5.5 C 196.027,5.08824 194.694,6.08824 194.5,8.5C 194.5,10.1667 194.5,11.8333 194.5,13.5C 191.167,13.1667 187.833,12.8333 184.5,12.5C 183.436,16.099 181.269,19.099 178,21.5C 176.309,23.7087 176.476,25.5421 178.5,27C 175.809,27.1558 173.476,27.9891 171.5,29.5C 170.662,29.8417 170.328,30.5084 170.5,31.5C 169.316,33.4099 167.816,33.7432 166,32.5C 165.667,33.1667 165.333,33.8333 165,34.5C 162.484,32.1899 159.818,32.1899 157,34.5C 152.349,32.2407 147.515,31.9074 142.5,33.5C 139.398,33.5034 139.065,33.0034 141.5,32C 141.034,30.7012 141.034,29.2012 141.5,27.5C 143.5,27.5 145.5,27.5 147.5,27.5C 149.106,24.4749 148.772,21.8082 146.5,19.5C 145.473,16.3072 143.306,14.3072 140,13.5C 137.743,15.0242 135.41,16.3575 133,17.5C 124.632,16.4768 116.132,15.4768 107.5,14.5C 104.843,12.9986 102.51,13.4986 100.5,16C 100.645,16.772 100.978,17.4387 101.5,18C 99.3367,18.2453 97.67,19.2453 96.5,21C 94.8659,21.4935 93.1992,21.6602 91.5,21.5C 90.5,21.5 89.5,21.5 88.5,21.5C 88.2046,27.0533 86.5379,32.0533 83.5,36.5C 83.5,37.1667 83.1667,37.5 82.5,37.5C 79.0873,39.0601 75.4206,39.8935 71.5,40C 70.944,40.3826 70.6107,40.8826 70.5,41.5C 69.8333,42.1667 69.1667,42.8333 68.5,43.5C 65.6005,43.1212 63.2671,41.7878 61.5,39.5C 59.8273,41.0863 57.8273,41.7529 55.5,41.5C 55.7678,39.901 55.4345,38.5676 54.5,37.5C 53.0745,34.9036 51.0745,32.737 48.5,31C 46.1195,30.2615 44.1195,30.7615 42.5,32.5C 41.8333,32.5 41.5,32.8333 41.5,33.5C 38.1566,34.059 35.1566,35.3923 32.5,37.5C 31.746,40.3051 30.746,42.9717 29.5,45.5C 30.8643,47.8442 30.1977,49.5109 27.5,50.5C 25.1807,51.0639 22.8474,51.5639 20.5,52C 21.5,52.3333 22.5,52.6667 23.5,53C 20.6325,54.8551 18.1325,54.3551 16,51.5C 15.5814,52.6721 14.9147,53.6721 14,54.5C 12.6472,53.2958 10.9806,52.6292 9,52.5C 5.73903,53.2966 2.57237,53.2966 -0.5,52.5C -0.5,45.8333 -0.5,39.1667 -0.5,32.5C 2.07283,33.5552 4.73949,33.7218 7.5,33C 8.33663,31.9887 8.66997,30.8221 8.5,29.5C 11.0593,29.8016 13.3926,29.4682 15.5,28.5C 19.2739,28.5164 20.2739,26.8497 18.5,23.5C 20.8244,22.3378 23.1578,21.1711 25.5,20C 25.0426,19.586 24.7093,19.086 24.5,18.5C 25.8333,17.8333 27.1667,17.1667 28.5,16.5C 25.7709,14.6329 26.1043,13.6329 29.5,13.5C 29.5,14.5 29.5,15.5 29.5,16.5C 34.8651,16.3437 40.1984,15.8437 45.5,15C 46.8228,14.1841 47.4894,13.0174 47.5,11.5C 48.4485,15.081 46.7818,16.9143 42.5,17C 45.78,17.4045 48.28,18.9045 50,21.5C 51.6399,18.0373 53.3066,18.3707 55,22.5C 56.425,21.7877 57.925,21.621 59.5,22C 58.5494,21.2825 58.3828,20.4491 59,19.5C 60.5374,19.9126 62.2041,19.9126 64,19.5C 65.605,20.1007 66.9384,21.1007 68,22.5C 68.3333,21.8333 68.6667,21.1667 69,20.5C 70.2682,20.6158 71.6015,20.9491 73,21.5C 74.2515,19.9991 75.2515,18.3325 76,16.5C 76.779,17.7282 77.779,18.7282 79,19.5C 82.2664,18.6988 85.2664,17.3654 88,15.5C 88.9454,15.9054 89.6121,16.572 90,17.5C 91.0674,16.8095 92.2341,16.3095 93.5,16C 93.1667,15.6667 92.8333,15.3333 92.5,15C 93.8187,13.3721 95.1521,13.5387 96.5,15.5C 97.4202,11.9806 100.087,9.98065 104.5,9.5C 105.506,9.93767 105.506,10.6043 104.5,11.5C 107.616,12.3976 110.782,13.0643 114,13.5C 118.285,12.2303 122.619,12.5636 127,14.5C 130.106,13.5471 132.939,13.5471 135.5,14.5C 137.179,13.218 139.013,12.218 141,11.5C 142.512,13.9574 143.846,13.9574 145,11.5C 145.368,12.91 146.201,13.91 147.5,14.5C 149.311,13.1735 151.311,12.1735 153.5,11.5C 152.91,10.2011 151.91,9.36775 150.5,9C 151.108,8.13008 151.941,7.63008 153,7.5C 154.7,9.60605 156.867,11.1061 159.5,12C 159.167,12.3333 158.833,12.6667 158.5,13C 160.155,14.4443 160.822,16.2776 160.5,18.5C 163.444,19.8403 166.111,19.507 168.5,17.5C 170.432,18.5202 172.432,18.6869 174.5,18C 176.125,17.1475 176.458,16.1475 175.5,15C 176.833,14.6667 178.167,14.3333 179.5,14C 179.167,13.6667 178.833,13.3333 178.5,13C 179.676,11.0858 180.676,11.2524 181.5,13.5C 183.559,12.433 185.392,11.0996 187,9.5C 188.667,9.83333 190.333,10.1667 192,10.5C 192.617,9.55085 192.451,8.71752 191.5,8C 193.376,7.0816 194.376,5.5816 194.5,3.5C 195.583,3.46056 196.583,3.12723 197.5,2.5C 198.386,3.32496 198.719,4.32496 198.5,5.5 Z"/></g>
<g><path style="opacity:0.647" fill="#676065" d="M 43.5,-0.5 C 44.1667,-0.5 44.8333,-0.5 45.5,-0.5C 45.6427,1.26241 45.3094,2.92908 44.5,4.5C 45.7057,6.79384 46.7057,9.12718 47.5,11.5C 47.4894,13.0174 46.8228,14.1841 45.5,15C 40.1984,15.8437 34.8651,16.3437 29.5,16.5C 29.5,15.5 29.5,14.5 29.5,13.5C 26.1043,13.6329 25.7709,14.6329 28.5,16.5C 27.1667,17.1667 25.8333,17.8333 24.5,18.5C 24.7093,19.086 25.0426,19.586 25.5,20C 23.1578,21.1711 20.8244,22.3378 18.5,23.5C 20.2739,26.8497 19.2739,28.5164 15.5,28.5C 16.7615,25.7197 15.7615,24.053 12.5,23.5C 10.2685,23.8528 8.26855,24.6861 6.5,26C 4.19018,26.4966 1.85684,26.6633 -0.5,26.5C -0.5,25.5 -0.5,24.5 -0.5,23.5C 4.92983,24.0365 8.42983,21.7032 10,16.5C 12.9839,16.8242 15.9839,17.1575 19,17.5C 20.876,16.381 21.7093,14.7144 21.5,12.5C 25.6017,12.044 29.435,12.7106 33,14.5C 35.3517,14.2654 37.8517,14.0988 40.5,14C 41.5505,12.6152 42.8839,11.6152 44.5,11C 43.5399,7.27002 43.2065,3.43669 43.5,-0.5 Z"/></g>
<g><path style="opacity:0.647" fill="#cecacb" d="M 270.5,15.5 C 272.699,18.0132 275.033,20.5132 277.5,23C 277.167,23.5 276.833,24 276.5,24.5C 273.872,24.4626 271.205,24.1292 268.5,23.5C 266.868,24.2974 265.368,25.2974 264,26.5C 262.433,25.1439 260.6,24.4772 258.5,24.5C 257.875,21.0295 258.875,18.1962 261.5,16C 256.335,15.574 252.002,13.7406 248.5,10.5C 253.953,9.71187 259.453,9.71187 265,10.5C 267.663,11.3332 269.497,12.9999 270.5,15.5 Z"/></g>
<g><path style="opacity:0.639" fill="#c7c2c3" d="M 213.5,6.5 C 211.952,6.82124 211.285,7.82124 211.5,9.5C 209.658,9.7233 207.825,10.0566 206,10.5C 203.528,9.67806 201.028,9.01139 198.5,8.5C 199.221,11.8175 199.388,15.1508 199,18.5C 193.926,17.998 188.759,17.998 183.5,18.5C 183.5,19.5 183.5,20.5 183.5,21.5C 187.646,21.6204 188.313,23.1204 185.5,26C 185.645,26.772 185.978,27.4387 186.5,28C 194.299,31.928 202.299,32.428 210.5,29.5C 210.238,28.0222 210.571,26.6888 211.5,25.5C 212.736,26.2458 214.07,26.5792 215.5,26.5C 215.076,23.646 214.076,20.9793 212.5,18.5C 214.059,16.8693 216.059,16.036 218.5,16C 219.337,14.9887 219.67,13.8221 219.5,12.5C 221.833,12.5 224.167,12.5 226.5,12.5C 226.5,13.5 226.5,14.5 226.5,15.5C 225.178,15.67 224.011,15.3366 223,14.5C 222.517,15.448 222.351,16.448 222.5,17.5C 220.692,17.4914 219.025,17.9914 217.5,19C 221.717,22.4725 221.384,25.4725 216.5,28C 218.804,28.8952 221.138,29.7285 223.5,30.5C 222.37,31.6223 221.703,32.9557 221.5,34.5C 217.169,36.2558 213.336,35.5891 210,32.5C 207.625,32.8178 206.458,34.1511 206.5,36.5C 198.18,39.6242 189.513,40.7908 180.5,40C 175.473,38.1466 172.473,34.6466 171.5,29.5C 173.476,27.9891 175.809,27.1558 178.5,27C 176.476,25.5421 176.309,23.7087 178,21.5C 181.269,19.099 183.436,16.099 184.5,12.5C 187.833,12.8333 191.167,13.1667 194.5,13.5C 194.5,11.8333 194.5,10.1667 194.5,8.5C 198.653,6.95018 202.653,7.28351 206.5,9.5C 207.666,7.6351 207.333,5.96844 205.5,4.5C 206.167,4.16667 206.833,3.83333 207.5,3.5C 209.563,4.51179 211.563,5.51179 213.5,6.5 Z"/></g>
<g><path style="opacity:0.647" fill="#dcd8d8" d="M 226.5,12.5 C 224.167,12.5 221.833,12.5 219.5,12.5C 219.67,13.8221 219.337,14.9887 218.5,16C 216.059,16.036 214.059,16.8693 212.5,18.5C 214.076,20.9793 215.076,23.646 215.5,26.5C 214.07,26.5792 212.736,26.2458 211.5,25.5C 210.571,26.6888 210.238,28.0222 210.5,29.5C 202.299,32.428 194.299,31.928 186.5,28C 185.978,27.4387 185.645,26.772 185.5,26C 188.313,23.1204 187.646,21.6204 183.5,21.5C 183.5,20.5 183.5,19.5 183.5,18.5C 188.759,17.998 193.926,17.998 199,18.5C 199.388,15.1508 199.221,11.8175 198.5,8.5C 201.028,9.01139 203.528,9.67806 206,10.5C 207.825,10.0566 209.658,9.7233 211.5,9.5C 211.285,7.82124 211.952,6.82124 213.5,6.5C 214.167,6.5 214.833,6.5 215.5,6.5C 218.199,1.3744 220.865,1.3744 223.5,6.5C 225.409,5.65178 227.409,5.31845 229.5,5.5C 230.091,8.67532 229.091,11.0087 226.5,12.5 Z"/></g>
<g><path style="opacity:0.647" fill="#a0989b" d="M 227.5,-0.5 C 230.5,-0.5 233.5,-0.5 236.5,-0.5C 236.67,0.822066 236.337,1.98873 235.5,3C 237.997,3.41174 239.997,4.57841 241.5,6.5C 240.141,9.32894 239.141,11.9956 238.5,14.5C 238.833,16.1667 239.833,17.1667 241.5,17.5C 242.521,16.0986 243.521,14.7653 244.5,13.5C 244.34,15.1992 244.506,16.8659 245,18.5C 246.706,19.3079 247.539,20.6412 247.5,22.5C 241.409,22.5348 235.409,23.2015 229.5,24.5C 227.074,30.1218 225.407,29.7885 224.5,23.5C 229.89,22.7503 230.557,20.7503 226.5,17.5C 226.977,16.5224 227.643,15.6891 228.5,15C 231.063,12.7186 234.063,11.5519 237.5,11.5C 237.884,9.33515 237.217,7.66848 235.5,6.5C 233.658,9.22442 232.324,9.05775 231.5,6C 232.79,3.39286 231.79,2.05952 228.5,2C 227.748,1.32924 227.414,0.495904 227.5,-0.5 Z"/></g>
<g><path style="opacity:0.598" fill="#8b8183" d="M 146.5,19.5 C 145.206,21.3284 144.206,23.3284 143.5,25.5C 141.5,25.5 139.5,25.5 137.5,25.5C 137.662,27.5273 137.495,29.5273 137,31.5C 134.723,32.1172 132.556,32.7839 130.5,33.5C 128.031,34.0671 125.698,34.0671 123.5,33.5C 119.956,29.2142 115.289,27.2142 109.5,27.5C 109.66,25.8008 109.494,24.1341 109,22.5C 106.379,20.2284 105.879,17.5618 107.5,14.5C 116.132,15.4768 124.632,16.4768 133,17.5C 135.41,16.3575 137.743,15.0242 140,13.5C 143.306,14.3072 145.473,16.3072 146.5,19.5 Z"/></g>
<g><path style="opacity:0.647" fill="#7d7476" d="M 15.5,28.5 C 13.3926,29.4682 11.0593,29.8016 8.5,29.5C 8.66997,30.8221 8.33663,31.9887 7.5,33C 4.73949,33.7218 2.07283,33.5552 -0.5,32.5C -0.5,30.5 -0.5,28.5 -0.5,26.5C 1.85684,26.6633 4.19018,26.4966 6.5,26C 8.26855,24.6861 10.2685,23.8528 12.5,23.5C 15.7615,24.053 16.7615,25.7197 15.5,28.5 Z"/></g>
<g><path style="opacity:0.623" fill="#c8c3c4" d="M 107.5,14.5 C 105.879,17.5618 106.379,20.2284 109,22.5C 109.494,24.1341 109.66,25.8008 109.5,27.5C 115.289,27.2142 119.956,29.2142 123.5,33.5C 122.947,36.6512 123.614,39.6512 125.5,42.5C 124.167,42.5 122.833,42.5 121.5,42.5C 121.762,41.0222 121.429,39.6888 120.5,38.5C 117.17,37.9062 113.836,37.2396 110.5,36.5C 110.023,35.5224 109.357,34.6891 108.5,34C 104.39,33.675 100.39,32.8417 96.5,31.5C 95.3279,31.9186 94.3279,32.5853 93.5,33.5C 92.2528,31.9936 92.2528,30.4936 93.5,29C 92.552,28.5172 91.552,28.3505 90.5,28.5C 90.298,26.0504 90.6314,23.717 91.5,21.5C 93.1992,21.6602 94.8659,21.4935 96.5,21C 97.67,19.2453 99.3367,18.2453 101.5,18C 100.978,17.4387 100.645,16.772 100.5,16C 102.51,13.4986 104.843,12.9986 107.5,14.5 Z"/></g>
<g><path style="opacity:0.407" fill="#605e68" d="M 146.5,19.5 C 148.772,21.8082 149.106,24.4749 147.5,27.5C 145.5,27.5 143.5,27.5 141.5,27.5C 141.034,29.2012 141.034,30.7012 141.5,32C 139.065,33.0034 139.398,33.5034 142.5,33.5C 147.515,31.9074 152.349,32.2407 157,34.5C 159.818,32.1899 162.484,32.1899 165,34.5C 165.333,33.8333 165.667,33.1667 166,32.5C 167.816,33.7432 169.316,33.4099 170.5,31.5C 170.5,32.1667 170.5,32.8333 170.5,33.5C 170.5,34.8333 170.5,36.1667 170.5,37.5C 166.155,37.2981 165.488,38.6314 168.5,41.5C 167.768,42.8083 166.934,44.1416 166,45.5C 161.828,44.946 157.661,43.6127 153.5,41.5C 152.833,41.8333 152.167,42.1667 151.5,42.5C 148.167,41.8333 144.833,41.1667 141.5,40.5C 140.551,43.5621 138.551,43.8955 135.5,41.5C 134.808,42.0253 134.308,42.6919 134,43.5C 133.454,40.6209 132.621,37.9542 131.5,35.5C 131.167,34.8333 130.833,34.1667 130.5,33.5C 132.556,32.7839 134.723,32.1172 137,31.5C 137.495,29.5273 137.662,27.5273 137.5,25.5C 139.5,25.5 141.5,25.5 143.5,25.5C 144.206,23.3284 145.206,21.3284 146.5,19.5 Z"/></g>
<g><path style="opacity:0.639" fill="#a49b9d" d="M 42.5,32.5 C 44.8333,32.5 47.1667,32.5 49.5,32.5C 49.4332,34.4008 49.7665,36.2341 50.5,38C 45.9472,41.3798 40.9472,42.0465 35.5,40C 36.2524,39.3292 36.5858,38.4959 36.5,37.5C 38.1667,36.1667 39.8333,34.8333 41.5,33.5C 41.5,32.8333 41.8333,32.5 42.5,32.5 Z"/></g>
<g><path style="opacity:0.611" fill="#d5d0d0" d="M 83.5,36.5 C 87.6074,36.5179 91.6074,37.1846 95.5,38.5C 93.7299,39.8196 93.3966,41.3196 94.5,43C 92.8659,43.4935 91.1992,43.6602 89.5,43.5C 88.791,42.596 87.791,42.2627 86.5,42.5C 82.7255,42.3649 81.3922,40.6982 82.5,37.5C 83.1667,37.5 83.5,37.1667 83.5,36.5 Z"/></g>
<g><path style="opacity:0.455" fill="#b0aaac" d="M 91.5,21.5 C 90.6314,23.717 90.298,26.0504 90.5,28.5C 91.552,28.3505 92.552,28.5172 93.5,29C 92.2528,30.4936 92.2528,31.9936 93.5,33.5C 94.3279,32.5853 95.3279,31.9186 96.5,31.5C 100.39,32.8417 104.39,33.675 108.5,34C 109.357,34.6891 110.023,35.5224 110.5,36.5C 113.836,37.2396 117.17,37.9062 120.5,38.5C 121.429,39.6888 121.762,41.0222 121.5,42.5C 122.833,42.5 124.167,42.5 125.5,42.5C 123.614,39.6512 122.947,36.6512 123.5,33.5C 125.698,34.0671 128.031,34.0671 130.5,33.5C 130.833,34.1667 131.167,34.8333 131.5,35.5C 131.5,37.8333 131.5,40.1667 131.5,42.5C 129.517,42.1568 128.183,42.8235 127.5,44.5C 125.833,44.5 124.167,44.5 122.5,44.5C 122.5,45.5 122.5,46.5 122.5,47.5C 120.968,48.6774 119.468,50.0107 118,51.5C 115.79,50.2512 113.624,50.4178 111.5,52C 109.961,55.5437 107.294,57.5437 103.5,58C 102.26,60.4726 100.593,60.9726 98.5,59.5C 99.6534,57.568 99.6534,55.568 98.5,53.5C 98.722,51.9446 99.3887,50.6113 100.5,49.5C 99.7542,48.2638 99.4208,46.9305 99.5,45.5C 102.572,45.8174 105.572,45.4841 108.5,44.5C 110.546,42.8038 112.879,41.4705 115.5,40.5C 112.785,38.7357 109.785,37.7357 106.5,37.5C 106.785,39.288 106.452,40.9547 105.5,42.5C 102.897,41.4383 100.23,41.2716 97.5,42C 95.1637,45.7635 92.497,46.2635 89.5,43.5C 91.1992,43.6602 92.8659,43.4935 94.5,43C 93.3966,41.3196 93.7299,39.8196 95.5,38.5C 91.6074,37.1846 87.6074,36.5179 83.5,36.5C 86.5379,32.0533 88.2046,27.0533 88.5,21.5C 89.5,21.5 90.5,21.5 91.5,21.5 Z"/></g>
<g><path style="opacity:0.637" fill="#8b8385" d="M 54.5,37.5 C 54.5792,38.9305 54.2458,40.2638 53.5,41.5C 48.8245,42.8399 44.1578,44.1732 39.5,45.5C 37.8333,45.3333 36.1667,45.1667 34.5,45C 33.4216,44.3261 32.7549,43.3261 32.5,42C 32.9988,39.6721 34.3321,38.1721 36.5,37.5C 36.5858,38.4959 36.2524,39.3292 35.5,40C 40.9472,42.0465 45.9472,41.3798 50.5,38C 49.7665,36.2341 49.4332,34.4008 49.5,32.5C 47.1667,32.5 44.8333,32.5 42.5,32.5C 44.1195,30.7615 46.1195,30.2615 48.5,31C 51.0745,32.737 53.0745,34.9036 54.5,37.5 Z"/></g>
<g><path style="opacity:0.624" fill="#999094" d="M 70.5,41.5 C 70.369,42.2389 70.5357,42.9056 71,43.5C 75.0581,40.4112 76.7247,41.4112 76,46.5C 71.2835,47.6079 66.7835,48.9413 62.5,50.5C 62.7947,52.7354 62.4614,54.7354 61.5,56.5C 61.5,54.1667 61.5,51.8333 61.5,49.5C 66.2974,50.369 68.6307,48.369 68.5,43.5C 69.1667,42.8333 69.8333,42.1667 70.5,41.5 Z"/></g>
<g><path style="opacity:0.583" fill="#7b7273" d="M 319.5,35.5 C 319.5,43.5 319.5,51.5 319.5,59.5C 316.908,60.9992 314.241,62.4992 311.5,64C 310.663,65.0113 310.33,66.1779 310.5,67.5C 313.5,67.5 316.5,67.5 319.5,67.5C 319.5,68.5 319.5,69.5 319.5,70.5C 314.821,70.6658 310.155,70.4992 305.5,70C 299.435,68.8033 298.435,66.1367 302.5,62C 305.424,61.0124 308.424,60.3457 311.5,60C 309.641,58.3076 307.641,56.8076 305.5,55.5C 302.988,56.3797 300.821,57.713 299,59.5C 298.439,58.9781 297.772,58.6448 297,58.5C 291.979,60.2557 287.145,61.4224 282.5,62C 281.833,62.6667 281.167,63.3333 280.5,64C 272.981,64.1727 265.981,66.1727 259.5,70C 261.25,71.3186 263.25,71.8186 265.5,71.5C 261.923,73.0011 258.09,74.0011 254,74.5C 252.231,73.6291 251.564,72.2957 252,70.5C 254.659,69.0654 257.492,68.0654 260.5,67.5C 261.386,66.675 261.719,65.675 261.5,64.5C 262.167,64.5 262.833,64.5 263.5,64.5C 267.619,64.0496 268.619,62.0496 266.5,58.5C 275.479,57.2809 284.479,55.7809 293.5,54C 294.716,52.406 296.049,50.906 297.5,49.5C 296.389,48.3887 295.722,47.0554 295.5,45.5C 296.095,40.1927 298.762,36.3594 303.5,34C 308.651,34.959 313.985,35.459 319.5,35.5 Z"/></g>
<g><path style="opacity:0.256" fill="#6f6d77" d="M 131.5,35.5 C 132.621,37.9542 133.454,40.6209 134,43.5C 134.308,42.6919 134.808,42.0253 135.5,41.5C 138.551,43.8955 140.551,43.5621 141.5,40.5C 144.833,41.1667 148.167,41.8333 151.5,42.5C 152.167,42.1667 152.833,41.8333 153.5,41.5C 157.661,43.6127 161.828,44.946 166,45.5C 166.934,44.1416 167.768,42.8083 168.5,41.5C 168.833,43.5 169.167,45.5 169.5,47.5C 164.751,46.4122 161.751,48.0789 160.5,52.5C 151.545,49.5453 142.712,49.8787 134,53.5C 132.238,53.0556 132.405,52.5556 134.5,52C 133.368,49.7899 131.868,49.2899 130,50.5C 128.97,50.1639 128.47,49.4972 128.5,48.5C 130.746,46.9117 130.412,45.5783 127.5,44.5C 128.183,42.8235 129.517,42.1568 131.5,42.5C 131.5,40.1667 131.5,37.8333 131.5,35.5 Z"/></g>
<g><path style="opacity:0.602" fill="#64626c" d="M 41.5,33.5 C 39.8333,34.8333 38.1667,36.1667 36.5,37.5C 34.3321,38.1721 32.9988,39.6721 32.5,42C 32.7549,43.3261 33.4216,44.3261 34.5,45C 36.1667,45.1667 37.8333,45.3333 39.5,45.5C 44.1578,44.1732 48.8245,42.8399 53.5,41.5C 54.2458,40.2638 54.5792,38.9305 54.5,37.5C 55.4345,38.5676 55.7678,39.901 55.5,41.5C 57.8273,41.7529 59.8273,41.0863 61.5,39.5C 63.2671,41.7878 65.6005,43.1212 68.5,43.5C 68.6307,48.369 66.2974,50.369 61.5,49.5C 61.5,51.8333 61.5,54.1667 61.5,56.5C 60.8333,56.5 60.5,56.8333 60.5,57.5C 55.7209,59.0411 53.3876,62.3744 53.5,67.5C 50.4867,67.8928 47.8201,67.2261 45.5,65.5C 40.3719,63.6225 35.7053,64.2892 31.5,67.5C 29.9292,64.9066 27.5959,63.9066 24.5,64.5C 24.6476,61.6477 23.3143,59.981 20.5,59.5C 17.3223,59.6708 14.8223,61.0041 13,63.5C 12.3005,61.968 11.1338,60.968 9.5,60.5C 8.61432,59.675 8.28099,58.675 8.5,57.5C 5.72243,57.0217 3.72243,58.0217 2.5,60.5C 1.48224,59.8075 0.482236,59.1408 -0.5,58.5C -0.5,56.5 -0.5,54.5 -0.5,52.5C 2.57237,53.2966 5.73903,53.2966 9,52.5C 10.9806,52.6292 12.6472,53.2958 14,54.5C 14.9147,53.6721 15.5814,52.6721 16,51.5C 18.1325,54.3551 20.6325,54.8551 23.5,53C 22.5,52.6667 21.5,52.3333 20.5,52C 22.8474,51.5639 25.1807,51.0639 27.5,50.5C 30.1977,49.5109 30.8643,47.8442 29.5,45.5C 30.746,42.9717 31.746,40.3051 32.5,37.5C 35.1566,35.3923 38.1566,34.059 41.5,33.5 Z"/></g>
<g><path style="opacity:0.261" fill="#888184" d="M 170.5,33.5 C 171.475,36.3112 172.142,39.3112 172.5,42.5C 179.76,43.4624 187.094,43.4624 194.5,42.5C 192.986,46.1188 190.653,48.9521 187.5,51C 187.735,51.8732 188.069,52.7065 188.5,53.5C 192.801,53.3811 194.801,55.3811 194.5,59.5C 196.294,60.8565 198.294,62.0232 200.5,63C 204.863,63.3694 209.196,63.8694 213.5,64.5C 213.657,66.8176 214.824,68.4843 217,69.5C 220.76,70.3592 224.427,70.6925 228,70.5C 228.382,77.0786 225.382,81.0786 219,82.5C 218.692,81.6919 218.192,81.0253 217.5,80.5C 216.481,81.6872 215.314,82.6872 214,83.5C 213.316,84.7839 213.483,85.9505 214.5,87C 212.693,89.2763 211.193,89.443 210,87.5C 209.667,88.1667 209.333,88.8333 209,89.5C 208.167,88 207,86.8333 205.5,86C 206.731,84.8173 206.731,83.6507 205.5,82.5C 201.446,81.5937 200.78,79.7603 203.5,77C 205.9,76.8142 208.234,76.3142 210.5,75.5C 210.145,74.4777 209.478,73.811 208.5,73.5C 209.398,71.3731 211.064,70.2065 213.5,70C 212.128,69.5983 210.795,69.0983 209.5,68.5C 208.808,69.0253 208.308,69.6919 208,70.5C 206.98,69.1095 206.147,67.6095 205.5,66C 202.494,65.6676 199.66,64.8343 197,63.5C 195.176,64.7487 195.343,65.9153 197.5,67C 196.552,67.4828 195.552,67.6495 194.5,67.5C 194.662,65.4727 194.495,63.4727 194,61.5C 193.167,62.5 192.333,63.5 191.5,64.5C 188.191,62.0864 184.524,60.4197 180.5,59.5C 179.088,60.8064 177.421,61.6397 175.5,62C 174.743,63.5122 173.743,64.8455 172.5,66C 173.956,68.2658 174.79,70.7658 175,73.5C 175.5,74 176,74.5 176.5,75C 184.159,75.4997 191.826,75.6664 199.5,75.5C 199.5,75.8333 199.5,76.1667 199.5,76.5C 196.5,76.5 193.5,76.5 190.5,76.5C 184.409,76.7886 178.409,76.4553 172.5,75.5C 171.071,74.7658 170.071,73.5991 169.5,72C 170.409,70.2108 170.576,68.3774 170,66.5C 169.667,67.1667 169.333,67.8333 169,68.5C 164.506,67.2666 164.672,66.0999 169.5,65C 167.981,63.6487 166.648,62.1487 165.5,60.5C 168.262,57.3808 168.762,54.0475 167,50.5C 163.828,49.0029 161.995,50.0029 161.5,53.5C 160.041,53.4326 158.708,53.7659 157.5,54.5C 156.07,54.4208 154.736,54.7542 153.5,55.5C 154.016,54.2418 153.35,53.2418 151.5,52.5C 150.575,53.6405 149.741,53.6405 149,52.5C 147.501,54.7562 145.834,54.7562 144,52.5C 142.238,52.9444 142.405,53.4444 144.5,54C 141.382,54.8725 138.382,56.0392 135.5,57.5C 133.259,56.8714 131.259,55.8714 129.5,54.5C 129.374,52.8002 128.707,51.3002 127.5,50C 127.57,49.2352 127.903,48.7352 128.5,48.5C 128.47,49.4972 128.97,50.1639 130,50.5C 131.868,49.2899 133.368,49.7899 134.5,52C 132.405,52.5556 132.238,53.0556 134,53.5C 142.712,49.8787 151.545,49.5453 160.5,52.5C 161.751,48.0789 164.751,46.4122 169.5,47.5C 169.167,45.5 168.833,43.5 168.5,41.5C 165.488,38.6314 166.155,37.2981 170.5,37.5C 170.5,36.1667 170.5,34.8333 170.5,33.5 Z"/></g>
<g><path style="opacity:0.561" fill="#948b8d" d="M 98.5,59.5 C 95.8887,59.6456 93.8887,60.8123 92.5,63C 91.2068,63.49 89.8734,63.6567 88.5,63.5C 88.4606,62.4168 88.1272,61.4168 87.5,60.5C 84.7372,58.4033 81.7372,56.7366 78.5,55.5C 78.8627,54.8165 79.1961,54.1499 79.5,53.5C 82.4331,52.236 84.7665,50.236 86.5,47.5C 85.8333,46.8333 85.1667,46.1667 84.5,45.5C 85.6119,44.7348 86.2786,43.7348 86.5,42.5C 87.791,42.2627 88.791,42.596 89.5,43.5C 92.497,46.2635 95.1637,45.7635 97.5,42C 100.23,41.2716 102.897,41.4383 105.5,42.5C 106.452,40.9547 106.785,39.288 106.5,37.5C 109.785,37.7357 112.785,38.7357 115.5,40.5C 112.879,41.4705 110.546,42.8038 108.5,44.5C 105.572,45.4841 102.572,45.8174 99.5,45.5C 99.4208,46.9305 99.7542,48.2638 100.5,49.5C 99.3887,50.6113 98.722,51.9446 98.5,53.5C 99.6534,55.568 99.6534,57.568 98.5,59.5 Z"/></g>
<g><path style="opacity:0.355" fill="#d6d2d2" d="M 127.5,44.5 C 130.412,45.5783 130.746,46.9117 128.5,48.5C 127.903,48.7352 127.57,49.2352 127.5,50C 128.707,51.3002 129.374,52.8002 129.5,54.5C 129.167,54.5 128.833,54.5 128.5,54.5C 127.596,55.209 127.263,56.209 127.5,57.5C 125.533,57.7394 123.699,57.4061 122,56.5C 121.264,53.408 121.431,50.408 122.5,47.5C 122.5,46.5 122.5,45.5 122.5,44.5C 124.167,44.5 125.833,44.5 127.5,44.5 Z"/></g>
<g><path style="opacity:0.6" fill="#a9a1a1" d="M 303.5,27.5 C 302.153,26.8288 300.986,26.8288 300,27.5C 299.503,30.146 299.336,32.8127 299.5,35.5C 296.244,35.773 293.244,36.1063 290.5,36.5C 289.622,39.5999 290.622,42.0999 293.5,44C 292.167,45.3333 292.167,46.6667 293.5,48C 292.268,51.3577 289.935,53.1911 286.5,53.5C 286.625,50.1075 284.958,48.7741 281.5,49.5C 278.774,49.6816 276.107,50.1816 273.5,51C 271.481,52.8661 269.148,54.0327 266.5,54.5C 261.023,50.9762 255.356,50.6428 249.5,53.5C 253.796,54.3275 258.129,54.8275 262.5,55C 266.456,56.1139 266.456,56.9473 262.5,57.5C 262.178,59.7224 262.845,61.5557 264.5,63C 263.944,63.3826 263.611,63.8826 263.5,64.5C 262.833,64.5 262.167,64.5 261.5,64.5C 261.611,63.8826 261.944,63.3826 262.5,63C 259.691,61.412 259.025,59.2454 260.5,56.5C 255.533,55.3377 250.533,55.1711 245.5,56C 244.568,58.6512 243.235,58.9845 241.5,57C 235.65,55.9884 229.984,56.4884 224.5,58.5C 223.269,57.3493 223.269,56.1827 224.5,55C 223.906,54.5357 223.239,54.369 222.5,54.5C 228.604,55.5083 234.937,55.5083 241.5,54.5C 241.5,53.5 241.5,52.5 241.5,51.5C 238.15,51.665 234.817,51.4983 231.5,51C 224.716,45.9481 217.049,43.1148 208.5,42.5C 208.032,37.3124 207.032,37.3124 205.5,42.5C 206.313,43.8139 207.313,44.9805 208.5,46C 205.458,48.8424 202.458,51.6757 199.5,54.5C 200.687,55.5195 201.687,56.6861 202.5,58C 206.188,58.4501 209.854,58.2834 213.5,57.5C 213.082,58.2216 212.416,58.7216 211.5,59C 213.366,59.9847 215.366,60.4847 217.5,60.5C 222.807,59.7244 228.14,59.3911 233.5,59.5C 233.5,60.5 233.5,61.5 233.5,62.5C 235.201,62.0338 236.701,62.0338 238,62.5C 237.513,64.0438 237.013,65.7105 236.5,67.5C 237.833,67.5 239.167,67.5 240.5,67.5C 235.266,69.2035 231.932,67.2035 230.5,61.5C 225.791,60.5025 221.124,60.8358 216.5,62.5C 209.135,61.645 201.802,60.645 194.5,59.5C 194.801,55.3811 192.801,53.3811 188.5,53.5C 188.069,52.7065 187.735,51.8732 187.5,51C 190.653,48.9521 192.986,46.1188 194.5,42.5C 187.094,43.4624 179.76,43.4624 172.5,42.5C 172.142,39.3112 171.475,36.3112 170.5,33.5C 170.5,32.8333 170.5,32.1667 170.5,31.5C 170.328,30.5084 170.662,29.8417 171.5,29.5C 172.473,34.6466 175.473,38.1466 180.5,40C 189.513,40.7908 198.18,39.6242 206.5,36.5C 206.458,34.1511 207.625,32.8178 210,32.5C 213.336,35.5891 217.169,36.2558 221.5,34.5C 228.815,35.1363 236.148,35.6363 243.5,36C 251.149,38.3329 251.816,41.4996 245.5,45.5C 246.747,47.0421 246.747,48.5421 245.5,50C 248.562,50.7415 251.562,50.5748 254.5,49.5C 255.378,47.0879 255.378,44.4213 254.5,41.5C 255.912,40.1936 257.579,39.3603 259.5,39C 264.508,38.1215 266.508,40.2882 265.5,45.5C 266.552,45.3505 267.552,45.5172 268.5,46C 266.975,47.0086 265.308,47.5086 263.5,47.5C 263.5,48.5 263.5,49.5 263.5,50.5C 269.479,48.4999 275.812,47.3333 282.5,47C 283.552,45.2835 282.886,44.2835 280.5,44C 282.125,41.9052 283.458,39.7385 284.5,37.5C 286.048,37.1788 286.715,36.1788 286.5,34.5C 290.177,33.4451 293.844,32.2784 297.5,31C 298.337,29.9887 298.67,28.8221 298.5,27.5C 297.5,27.5 296.5,27.5 295.5,27.5C 294.857,23.5669 295.857,20.2336 298.5,17.5C 298.5,17.1667 298.5,16.8333 298.5,16.5C 299.833,16.5 301.167,16.5 302.5,16.5C 302.351,15.448 302.517,14.448 303,13.5C 305.854,12.166 308.021,12.9993 309.5,16C 308.044,17.7975 306.544,19.6308 305,21.5C 304.685,23.5856 304.185,25.5856 303.5,27.5 Z"/></g>
<g><path style="opacity:0.576" fill="#978d8e" d="M 222.5,54.5 C 219.848,56.2892 216.848,57.2892 213.5,57.5C 209.854,58.2834 206.188,58.4501 202.5,58C 201.687,56.6861 200.687,55.5195 199.5,54.5C 202.458,51.6757 205.458,48.8424 208.5,46C 207.313,44.9805 206.313,43.8139 205.5,42.5C 207.032,37.3124 208.032,37.3124 208.5,42.5C 217.049,43.1148 224.716,45.9481 231.5,51C 234.817,51.4983 238.15,51.665 241.5,51.5C 241.5,52.5 241.5,53.5 241.5,54.5C 234.937,55.5083 228.604,55.5083 222.5,54.5 Z"/></g>
<g><path style="opacity:0.078" fill="#848192" d="M 157.5,54.5 C 157.167,55.1667 156.833,55.8333 156.5,56.5C 155.833,57.8333 155.167,59.1667 154.5,60.5C 153.15,59.4909 151.65,57.8242 150,55.5C 147.75,58.3557 145.417,59.0223 143,57.5C 141.26,58.7158 140.26,60.3825 140,62.5C 138.636,61.7417 137.469,62.2417 136.5,64C 137.634,65.016 137.301,65.6827 135.5,66C 135.966,67.2988 135.966,68.7988 135.5,70.5C 134.932,72.8654 133.599,75.1987 131.5,77.5C 130.503,77.5299 129.836,77.0299 129.5,76C 130.615,74.7651 130.615,73.5984 129.5,72.5C 129.846,71.3044 130.346,71.3044 131,72.5C 132.142,70.3823 132.642,68.3823 132.5,66.5C 132.043,65.7025 131.376,65.3691 130.5,65.5C 130.677,61.7657 130.344,58.0991 129.5,54.5C 131.259,55.8714 133.259,56.8714 135.5,57.5C 138.382,56.0392 141.382,54.8725 144.5,54C 142.405,53.4444 142.238,52.9444 144,52.5C 145.834,54.7562 147.501,54.7562 149,52.5C 149.741,53.6405 150.575,53.6405 151.5,52.5C 153.35,53.2418 154.016,54.2418 153.5,55.5C 154.736,54.7542 156.07,54.4208 157.5,54.5 Z"/></g>
<g><path style="opacity:0.586" fill="#968c8d" d="M 303.5,27.5 C 303.953,28.4584 304.619,29.2917 305.5,30C 310.408,30.5602 315.074,31.7268 319.5,33.5C 319.5,34.1667 319.5,34.8333 319.5,35.5C 313.985,35.459 308.651,34.959 303.5,34C 298.762,36.3594 296.095,40.1927 295.5,45.5C 295.722,47.0554 296.389,48.3887 297.5,49.5C 296.049,50.906 294.716,52.406 293.5,54C 284.479,55.7809 275.479,57.2809 266.5,58.5C 268.619,62.0496 267.619,64.0496 263.5,64.5C 263.611,63.8826 263.944,63.3826 264.5,63C 262.845,61.5557 262.178,59.7224 262.5,57.5C 266.456,56.9473 266.456,56.1139 262.5,55C 258.129,54.8275 253.796,54.3275 249.5,53.5C 255.356,50.6428 261.023,50.9762 266.5,54.5C 269.148,54.0327 271.481,52.8661 273.5,51C 276.107,50.1816 278.774,49.6816 281.5,49.5C 284.958,48.7741 286.625,50.1075 286.5,53.5C 289.935,53.1911 292.268,51.3577 293.5,48C 292.167,46.6667 292.167,45.3333 293.5,44C 290.622,42.0999 289.622,39.5999 290.5,36.5C 293.244,36.1063 296.244,35.773 299.5,35.5C 299.336,32.8127 299.503,30.146 300,27.5C 300.986,26.8288 302.153,26.8288 303.5,27.5 Z"/></g>
<g><path style="opacity:0.023" fill="#848082" d="M 154.5,60.5 C 154.586,61.4959 154.252,62.3292 153.5,63C 155.883,63.065 156.55,63.8983 155.5,65.5C 159.078,71.6529 162.411,77.9862 165.5,84.5C 167.167,85.1667 168.833,85.8333 170.5,86.5C 171.107,86.3764 171.44,86.0431 171.5,85.5C 173.104,86.287 173.771,87.6203 173.5,89.5C 177.271,89.9059 180.938,90.7392 184.5,92C 182.998,92.5831 181.665,93.4164 180.5,94.5C 181.833,95.5 181.833,96.5 180.5,97.5C 181.274,98.7112 182.107,98.7112 183,97.5C 185.123,100.97 186.29,100.97 186.5,97.5C 191.364,99.0408 196.364,99.7075 201.5,99.5C 216.146,100.581 230.812,100.747 245.5,100C 247.037,98.8904 247.703,97.3904 247.5,95.5C 244.254,95.2298 241.254,94.8965 238.5,94.5C 236.307,96.7206 233.64,98.054 230.5,98.5C 229.272,96.8241 227.939,96.4908 226.5,97.5C 224.801,97.6602 223.134,97.4935 221.5,97C 222.833,96.3333 222.833,95.6667 221.5,95C 219.965,94.5038 218.465,94.6705 217,95.5C 213.56,94.4064 210.393,93.0731 207.5,91.5C 211.597,90.9275 215.597,89.9275 219.5,88.5C 221.061,89.3473 222.561,89.0139 224,87.5C 224.816,88.8228 225.983,89.4894 227.5,89.5C 235.322,89.2464 242.989,89.2464 250.5,89.5C 252.229,88.8825 253.729,87.8825 255,86.5C 258.317,89.3222 262.817,90.8222 268.5,91C 269.252,91.6708 269.586,92.5041 269.5,93.5C 269.26,95.5918 270.094,97.5918 272,99.5C 279.219,98.2944 286.386,96.2944 293.5,93.5C 293.626,96.5576 295.126,96.8909 298,94.5C 298.464,95.0944 298.631,95.7611 298.5,96.5C 297.587,98.5617 296.087,98.895 294,97.5C 278.675,99.9252 266.175,101.592 256.5,102.5C 256.263,103.791 256.596,104.791 257.5,105.5C 258.167,105.5 258.5,105.833 258.5,106.5C 239.529,107.774 220.863,107.774 202.5,106.5C 202.577,105.25 203.244,104.417 204.5,104C 201.634,102.543 198.634,102.21 195.5,103C 194.748,103.671 194.414,104.504 194.5,105.5C 184.887,104.018 175.887,100.851 167.5,96C 162.487,91.8028 159.82,86.6361 159.5,80.5C 156.325,74.5122 152.991,68.6788 149.5,63C 144.422,62.2402 141.422,64.4068 140.5,69.5C 138.999,68.5573 137.665,68.8906 136.5,70.5C 136.167,70.5 135.833,70.5 135.5,70.5C 135.966,68.7988 135.966,67.2988 135.5,66C 137.301,65.6827 137.634,65.016 136.5,64C 137.469,62.2417 138.636,61.7417 140,62.5C 140.26,60.3825 141.26,58.7158 143,57.5C 145.417,59.0223 147.75,58.3557 150,55.5C 151.65,57.8242 153.15,59.4909 154.5,60.5 Z"/></g>
<g><path style="opacity:0.513" fill="#bdb8b8" d="M 82.5,37.5 C 81.3922,40.6982 82.7255,42.3649 86.5,42.5C 86.2786,43.7348 85.6119,44.7348 84.5,45.5C 85.1667,46.1667 85.8333,46.8333 86.5,47.5C 84.7665,50.236 82.4331,52.236 79.5,53.5C 78.8485,52.9094 78.1818,52.2427 77.5,51.5C 76.2485,53.0009 75.2485,54.6675 74.5,56.5C 76.1667,57.1667 77.8333,57.8333 79.5,58.5C 76.0712,63.6802 71.7378,64.6802 66.5,61.5C 70.7033,55.5964 69.87,54.9298 64,59.5C 62.583,58.9221 61.7496,57.9221 61.5,56.5C 62.4614,54.7354 62.7947,52.7354 62.5,50.5C 66.7835,48.9413 71.2835,47.6079 76,46.5C 76.7247,41.4112 75.0581,40.4112 71,43.5C 70.5357,42.9056 70.369,42.2389 70.5,41.5C 70.6107,40.8826 70.944,40.3826 71.5,40C 75.4206,39.8935 79.0873,39.0601 82.5,37.5 Z"/></g>
<g><path style="opacity:0.515" fill="#bcb5b5" d="M 222.5,54.5 C 223.239,54.369 223.906,54.5357 224.5,55C 223.269,56.1827 223.269,57.3493 224.5,58.5C 229.984,56.4884 235.65,55.9884 241.5,57C 243.235,58.9845 244.568,58.6512 245.5,56C 250.533,55.1711 255.533,55.3377 260.5,56.5C 259.025,59.2454 259.691,61.412 262.5,63C 261.944,63.3826 261.611,63.8826 261.5,64.5C 257.958,64.3802 254.458,64.7135 251,65.5C 248.237,65.0823 245.57,64.4156 243,63.5C 241.915,64.7356 241.082,66.0689 240.5,67.5C 239.167,67.5 237.833,67.5 236.5,67.5C 237.013,65.7105 237.513,64.0438 238,62.5C 236.701,62.0338 235.201,62.0338 233.5,62.5C 233.5,61.5 233.5,60.5 233.5,59.5C 228.14,59.3911 222.807,59.7244 217.5,60.5C 215.366,60.4847 213.366,59.9847 211.5,59C 212.416,58.7216 213.082,58.2216 213.5,57.5C 216.848,57.2892 219.848,56.2892 222.5,54.5 Z"/></g>
<g><path style="opacity:0.397" fill="#71696a" d="M 319.5,70.5 C 319.5,71.5 319.5,72.5 319.5,73.5C 316.566,74.2877 313.566,74.9544 310.5,75.5C 303.513,74.544 296.513,74.544 289.5,75.5C 287.896,74.713 287.229,73.3797 287.5,71.5C 284.167,71.5 280.833,71.5 277.5,71.5C 276.088,70.4675 274.422,69.8008 272.5,69.5C 270.423,70.9371 268.09,71.6038 265.5,71.5C 263.25,71.8186 261.25,71.3186 259.5,70C 265.981,66.1727 272.981,64.1727 280.5,64C 281.167,63.3333 281.833,62.6667 282.5,62C 287.145,61.4224 291.979,60.2557 297,58.5C 297.772,58.6448 298.439,58.9781 299,59.5C 300.821,57.713 302.988,56.3797 305.5,55.5C 307.641,56.8076 309.641,58.3076 311.5,60C 308.424,60.3457 305.424,61.0124 302.5,62C 298.435,66.1367 299.435,68.8033 305.5,70C 310.155,70.4992 314.821,70.6658 319.5,70.5 Z"/></g>
<g><path style="opacity:0.452" fill="#b1aaab" d="M 79.5,53.5 C 79.1961,54.1499 78.8627,54.8165 78.5,55.5C 81.7372,56.7366 84.7372,58.4033 87.5,60.5C 88.1272,61.4168 88.4606,62.4168 88.5,63.5C 86.5043,61.6668 84.171,61.1668 81.5,62C 79.8934,63.049 79.2267,64.549 79.5,66.5C 80.8734,66.3433 82.2068,66.51 83.5,67C 83.8333,68 84.1667,69 84.5,70C 86.1368,70.6012 87.8034,71.1012 89.5,71.5C 92.346,68.1485 95.846,65.8151 100,64.5C 105.663,64.5962 111.33,64.5962 117,64.5C 119.963,66.3652 123.13,67.1985 126.5,67C 125.124,64.4598 125.79,62.4598 128.5,61C 125.258,60.7167 124.924,59.8834 127.5,58.5C 128.429,57.3112 128.762,55.9778 128.5,54.5C 128.833,54.5 129.167,54.5 129.5,54.5C 130.344,58.0991 130.677,61.7657 130.5,65.5C 130.881,67.9418 130.214,68.6085 128.5,67.5C 124.382,69.3905 120.049,70.3905 115.5,70.5C 115.33,69.1779 115.663,68.0113 116.5,67C 110.431,66.1955 104.431,66.5288 98.5,68C 97.3595,68.7412 97.3595,69.5745 98.5,70.5C 94.1215,73.1085 89.4548,73.7751 84.5,72.5C 83.0499,71.1502 82.3832,69.4835 82.5,67.5C 80.1806,68.167 77.8473,68.3336 75.5,68C 74.0267,67.2904 73.3601,66.1238 73.5,64.5C 71.4078,64.5614 69.9078,65.5614 69,67.5C 67.6439,66.6198 66.1439,66.2865 64.5,66.5C 64.6567,65.1266 64.49,63.7932 64,62.5C 61.9286,61.8971 60.7619,60.5638 60.5,58.5C 60.5,58.1667 60.5,57.8333 60.5,57.5C 60.5,56.8333 60.8333,56.5 61.5,56.5C 61.7496,57.9221 62.583,58.9221 64,59.5C 69.87,54.9298 70.7033,55.5964 66.5,61.5C 71.7378,64.6802 76.0712,63.6802 79.5,58.5C 77.8333,57.8333 76.1667,57.1667 74.5,56.5C 75.2485,54.6675 76.2485,53.0009 77.5,51.5C 78.1818,52.2427 78.8485,52.9094 79.5,53.5 Z"/></g>
<g><path style="opacity:0.478" fill="#b0a8a8" d="M 319.5,59.5 C 319.5,62.1667 319.5,64.8333 319.5,67.5C 316.5,67.5 313.5,67.5 310.5,67.5C 310.33,66.1779 310.663,65.0113 311.5,64C 314.241,62.4992 316.908,60.9992 319.5,59.5 Z"/></g>
<g><path style="opacity:0.361" fill="#c0baba" d="M 122.5,47.5 C 121.431,50.408 121.264,53.408 122,56.5C 123.699,57.4061 125.533,57.7394 127.5,57.5C 127.263,56.209 127.596,55.209 128.5,54.5C 128.762,55.9778 128.429,57.3112 127.5,58.5C 124.924,59.8834 125.258,60.7167 128.5,61C 125.79,62.4598 125.124,64.4598 126.5,67C 123.13,67.1985 119.963,66.3652 117,64.5C 111.33,64.5962 105.663,64.5962 100,64.5C 95.846,65.8151 92.346,68.1485 89.5,71.5C 87.8034,71.1012 86.1368,70.6012 84.5,70C 84.1667,69 83.8333,68 83.5,67C 82.2068,66.51 80.8734,66.3433 79.5,66.5C 79.2267,64.549 79.8934,63.049 81.5,62C 84.171,61.1668 86.5043,61.6668 88.5,63.5C 89.8734,63.6567 91.2068,63.49 92.5,63C 93.8887,60.8123 95.8887,59.6456 98.5,59.5C 100.593,60.9726 102.26,60.4726 103.5,58C 107.294,57.5437 109.961,55.5437 111.5,52C 113.624,50.4178 115.79,50.2512 118,51.5C 119.468,50.0107 120.968,48.6774 122.5,47.5 Z"/></g>
<g><path style="opacity:0.174" fill="#756e70" d="M 208.5,73.5 C 205.308,73.4045 202.308,74.0712 199.5,75.5C 191.826,75.6664 184.159,75.4997 176.5,75C 176,74.5 175.5,74 175,73.5C 174.79,70.7658 173.956,68.2658 172.5,66C 173.743,64.8455 174.743,63.5122 175.5,62C 177.421,61.6397 179.088,60.8064 180.5,59.5C 184.524,60.4197 188.191,62.0864 191.5,64.5C 192.333,63.5 193.167,62.5 194,61.5C 194.495,63.4727 194.662,65.4727 194.5,67.5C 195.552,67.6495 196.552,67.4828 197.5,67C 195.343,65.9153 195.176,64.7487 197,63.5C 199.66,64.8343 202.494,65.6676 205.5,66C 206.147,67.6095 206.98,69.1095 208,70.5C 208.308,69.6919 208.808,69.0253 209.5,68.5C 210.795,69.0983 212.128,69.5983 213.5,70C 211.064,70.2065 209.398,71.3731 208.5,73.5 Z"/></g>
<g><path style="opacity:0.008" fill="#fdfdfd" d="M 140.5,69.5 C 140.793,72.7543 140.126,75.7543 138.5,78.5C 137.395,77.3995 136.062,76.7329 134.5,76.5C 135.363,74.5786 136.029,72.5786 136.5,70.5C 137.665,68.8906 138.999,68.5573 140.5,69.5 Z"/></g>
<g><path style="opacity:0.039" fill="#999797" d="M 172.5,75.5 C 170.629,75.8588 169.129,76.8588 168,78.5C 166.034,75.399 164.2,72.2324 162.5,69C 163.835,67.3257 165.169,65.659 166.5,64C 162.807,61.9475 162.64,59.4475 166,56.5C 166.798,54.7412 166.631,53.0745 165.5,51.5C 162.982,53.9283 159.982,55.595 156.5,56.5C 156.833,55.8333 157.167,55.1667 157.5,54.5C 158.708,53.7659 160.041,53.4326 161.5,53.5C 161.995,50.0029 163.828,49.0029 167,50.5C 168.762,54.0475 168.262,57.3808 165.5,60.5C 166.648,62.1487 167.981,63.6487 169.5,65C 164.672,66.0999 164.506,67.2666 169,68.5C 169.333,67.8333 169.667,67.1667 170,66.5C 170.576,68.3774 170.409,70.2108 169.5,72C 170.071,73.5991 171.071,74.7658 172.5,75.5 Z"/></g>
<g><path style="opacity:0.334" fill="#968e90" d="M 194.5,59.5 C 201.802,60.645 209.135,61.645 216.5,62.5C 221.124,60.8358 225.791,60.5025 230.5,61.5C 231.932,67.2035 235.266,69.2035 240.5,67.5C 241.082,66.0689 241.915,64.7356 243,63.5C 245.57,64.4156 248.237,65.0823 251,65.5C 254.458,64.7135 257.958,64.3802 261.5,64.5C 261.719,65.675 261.386,66.675 260.5,67.5C 257.492,68.0654 254.659,69.0654 252,70.5C 251.564,72.2957 252.231,73.6291 254,74.5C 258.09,74.0011 261.923,73.0011 265.5,71.5C 268.09,71.6038 270.423,70.9371 272.5,69.5C 274.422,69.8008 276.088,70.4675 277.5,71.5C 276.778,71.9175 276.278,72.5842 276,73.5C 273.619,72.565 271.119,72.2317 268.5,72.5C 268.853,74.6348 268.02,75.9681 266,76.5C 264.532,75.3722 262.865,74.7055 261,74.5C 257.542,75.2865 254.042,75.6198 250.5,75.5C 250.216,77.8771 250.216,80.0438 250.5,82C 250,82.5 249.5,83 249,83.5C 245.191,81.912 241.857,82.5787 239,85.5C 237.591,83.1164 235.924,81.7831 234,81.5C 233.215,85.4927 230.715,87.4927 226.5,87.5C 226.863,88.1835 227.196,88.8501 227.5,89.5C 225.983,89.4894 224.816,88.8228 224,87.5C 222.561,89.0139 221.061,89.3473 219.5,88.5C 215.597,89.9275 211.597,90.9275 207.5,91.5C 206.198,90.1931 204.865,90.1931 203.5,91.5C 201.695,90.528 200.028,89.3613 198.5,88C 200.045,86.3123 201.045,84.3123 201.5,82C 201,81.8333 200.5,81.6667 200,81.5C 198.829,82.3396 197.662,83.1729 196.5,84C 197.833,84.6667 197.833,85.3333 196.5,86C 194.866,86.4935 193.199,86.6602 191.5,86.5C 193.197,82.4752 196.197,79.8086 200.5,78.5C 201.981,77.056 201.648,76.3894 199.5,76.5C 199.5,76.1667 199.5,75.8333 199.5,75.5C 202.308,74.0712 205.308,73.4045 208.5,73.5C 209.478,73.811 210.145,74.4777 210.5,75.5C 208.234,76.3142 205.9,76.8142 203.5,77C 200.78,79.7603 201.446,81.5937 205.5,82.5C 206.731,83.6507 206.731,84.8173 205.5,86C 207,86.8333 208.167,88 209,89.5C 209.333,88.8333 209.667,88.1667 210,87.5C 211.193,89.443 212.693,89.2763 214.5,87C 213.483,85.9505 213.316,84.7839 214,83.5C 215.314,82.6872 216.481,81.6872 217.5,80.5C 218.192,81.0253 218.692,81.6919 219,82.5C 225.382,81.0786 228.382,77.0786 228,70.5C 224.427,70.6925 220.76,70.3592 217,69.5C 214.824,68.4843 213.657,66.8176 213.5,64.5C 209.196,63.8694 204.863,63.3694 200.5,63C 198.294,62.0232 196.294,60.8565 194.5,59.5 Z"/></g>
<g><path style="opacity:0.016" fill="#c9c5c5" d="M 135.5,70.5 C 135.833,70.5 136.167,70.5 136.5,70.5C 136.029,72.5786 135.363,74.5786 134.5,76.5C 132.73,81.1986 130.063,85.3652 126.5,89C 127.252,89.6708 127.586,90.5041 127.5,91.5C 127.5,92.1667 127.167,92.5 126.5,92.5C 120.667,93.0844 116,95.751 112.5,100.5C 108.753,100.392 105.086,100.892 101.5,102C 100.663,103.011 100.33,104.178 100.5,105.5C 98.8828,106.038 97.2161,106.371 95.5,106.5C 95.7512,104.83 96.4178,103.33 97.5,102C 96.5842,101.722 95.9175,101.222 95.5,100.5C 99.2293,99.9872 102.896,99.1539 106.5,98C 106.043,97.586 105.709,97.086 105.5,96.5C 107.386,95.5937 109.22,94.5937 111,93.5C 111.492,92.451 111.326,91.451 110.5,90.5C 110.879,88.7869 111.879,87.7869 113.5,87.5C 114.4,84.6047 115.733,81.9381 117.5,79.5C 120.059,79.8016 122.393,79.4682 124.5,78.5C 127.059,78.8016 129.393,78.4682 131.5,77.5C 133.599,75.1987 134.932,72.8654 135.5,70.5 Z"/></g>
<g><path style="opacity:0.285" fill="#a29b9c" d="M 60.5,58.5 C 60.7619,60.5638 61.9286,61.8971 64,62.5C 64.49,63.7932 64.6567,65.1266 64.5,66.5C 66.1439,66.2865 67.6439,66.6198 69,67.5C 69.9078,65.5614 71.4078,64.5614 73.5,64.5C 73.3601,66.1238 74.0267,67.2904 75.5,68C 77.8473,68.3336 80.1806,68.167 82.5,67.5C 82.3832,69.4835 83.0499,71.1502 84.5,72.5C 89.4548,73.7751 94.1215,73.1085 98.5,70.5C 97.3595,69.5745 97.3595,68.7412 98.5,68C 104.431,66.5288 110.431,66.1955 116.5,67C 115.663,68.0113 115.33,69.1779 115.5,70.5C 120.049,70.3905 124.382,69.3905 128.5,67.5C 130.214,68.6085 130.881,67.9418 130.5,65.5C 131.376,65.3691 132.043,65.7025 132.5,66.5C 132.642,68.3823 132.142,70.3823 131,72.5C 130.346,71.3044 129.846,71.3044 129.5,72.5C 130.615,73.5984 130.615,74.7651 129.5,76C 129.836,77.0299 130.503,77.5299 131.5,77.5C 129.393,78.4682 127.059,78.8016 124.5,78.5C 123.427,77.7494 123.26,76.7494 124,75.5C 124.814,73.7183 125.981,72.2183 127.5,71C 124.406,70.3482 121.406,70.6815 118.5,72C 118.833,72.3333 119.167,72.6667 119.5,73C 118.24,74.113 117.073,74.2797 116,73.5C 116.033,78.8654 114.033,80.1988 110,77.5C 106.559,78.3822 103.059,78.7155 99.5,78.5C 99.3259,80.861 98.9926,83.1944 98.5,85.5C 96.5,85.5 94.5,85.5 92.5,85.5C 92.6495,84.448 92.4828,83.448 92,82.5C 91.3292,83.2524 90.4959,83.5858 89.5,83.5C 85.8036,82.1083 82.1369,80.775 78.5,79.5C 78.33,78.1779 78.6634,77.0113 79.5,76C 76.1667,75.3333 72.8333,75.3333 69.5,76C 69,76.5 68.5,77 68,77.5C 65.9871,75.7518 63.8205,74.4185 61.5,73.5C 61.7214,72.2652 62.3881,71.2652 63.5,70.5C 61.4759,68.6419 59.3092,66.9752 57,65.5C 56.5065,63.8659 56.3398,62.1992 56.5,60.5C 58.1993,60.4729 59.5326,59.8062 60.5,58.5 Z"/></g>
<g><path style="opacity:0.334" fill="#a09899" d="M 45.5,65.5 C 46.038,67.1172 46.3713,68.7839 46.5,70.5C 48.5,69.8333 50.5,69.1667 52.5,68.5C 53.449,70.7373 54.1156,73.0706 54.5,75.5C 51.4824,75.7038 48.4824,76.0371 45.5,76.5C 45.5,77.5 45.5,78.5 45.5,79.5C 44.8017,76.0961 42.635,74.7628 39,75.5C 35.4932,74.7781 33.3265,76.1114 32.5,79.5C 31.5832,78.8728 30.5832,78.5394 29.5,78.5C 27.5615,76.8372 25.2282,76.1706 22.5,76.5C 20.6412,76.5391 19.3079,75.7058 18.5,74C 12.1754,73.5005 5.84209,73.3338 -0.5,73.5C -0.5,68.5 -0.5,63.5 -0.5,58.5C 0.482236,59.1408 1.48224,59.8075 2.5,60.5C 3.72243,58.0217 5.72243,57.0217 8.5,57.5C 8.28099,58.675 8.61432,59.675 9.5,60.5C 11.1338,60.968 12.3005,61.968 13,63.5C 14.8223,61.0041 17.3223,59.6708 20.5,59.5C 23.3143,59.981 24.6476,61.6477 24.5,64.5C 27.5959,63.9066 29.9292,64.9066 31.5,67.5C 35.7053,64.2892 40.3719,63.6225 45.5,65.5 Z"/></g>
<g><path style="opacity:0.28" fill="#a59d9e" d="M 277.5,71.5 C 280.833,71.5 284.167,71.5 287.5,71.5C 287.229,73.3797 287.896,74.713 289.5,75.5C 289.5,77.1667 289.5,78.8333 289.5,80.5C 282.194,84.2577 274.36,86.5911 266,87.5C 263.594,87.2971 261.594,86.2971 260,84.5C 257.141,85.1734 254.308,86.0068 251.5,87C 250.748,87.6708 250.414,88.5041 250.5,89.5C 242.989,89.2464 235.322,89.2464 227.5,89.5C 227.196,88.8501 226.863,88.1835 226.5,87.5C 230.715,87.4927 233.215,85.4927 234,81.5C 235.924,81.7831 237.591,83.1164 239,85.5C 241.857,82.5787 245.191,81.912 249,83.5C 249.5,83 250,82.5 250.5,82C 250.216,80.0438 250.216,77.8771 250.5,75.5C 254.042,75.6198 257.542,75.2865 261,74.5C 262.865,74.7055 264.532,75.3722 266,76.5C 268.02,75.9681 268.853,74.6348 268.5,72.5C 271.119,72.2317 273.619,72.565 276,73.5C 276.278,72.5842 276.778,71.9175 277.5,71.5 Z"/></g>
<g><path style="opacity:0.008" fill="#8a8081" d="M 134.5,76.5 C 136.062,76.7329 137.395,77.3995 138.5,78.5C 136.456,84.2851 132.789,88.6184 127.5,91.5C 127.586,90.5041 127.252,89.6708 126.5,89C 130.063,85.3652 132.73,81.1986 134.5,76.5 Z"/></g>
<g><path style="opacity:0.282" fill="#87838b" d="M 60.5,57.5 C 60.5,57.8333 60.5,58.1667 60.5,58.5C 59.5326,59.8062 58.1993,60.4729 56.5,60.5C 56.3398,62.1992 56.5065,63.8659 57,65.5C 59.3092,66.9752 61.4759,68.6419 63.5,70.5C 62.3881,71.2652 61.7214,72.2652 61.5,73.5C 58.2206,74.0306 56.8872,76.0306 57.5,79.5C 53.5,78.1667 49.5,78.1667 45.5,79.5C 45.5,78.5 45.5,77.5 45.5,76.5C 48.4824,76.0371 51.4824,75.7038 54.5,75.5C 54.1156,73.0706 53.449,70.7373 52.5,68.5C 50.5,69.1667 48.5,69.8333 46.5,70.5C 46.3713,68.7839 46.038,67.1172 45.5,65.5C 47.8201,67.2261 50.4867,67.8928 53.5,67.5C 53.3876,62.3744 55.7209,59.0411 60.5,57.5 Z"/></g>
<g><path style="opacity:0.278" fill="#817f86" d="M -0.5,73.5 C 5.84209,73.3338 12.1754,73.5005 18.5,74C 19.3079,75.7058 20.6412,76.5391 22.5,76.5C 20.6146,78.3115 18.2813,79.4782 15.5,80C 16.1667,80.3333 16.8333,80.6667 17.5,81C 15.9559,81.2896 14.6226,81.9563 13.5,83C 11.8034,83.3845 10.1368,83.2178 8.5,82.5C 5.57393,83.4608 2.57393,84.1274 -0.5,84.5C -0.5,80.8333 -0.5,77.1667 -0.5,73.5 Z"/></g>
<g><path style="opacity:0.109" fill="#8d8b96" d="M 124.5,78.5 C 122.393,79.4682 120.059,79.8016 117.5,79.5C 115.733,81.9381 114.4,84.6047 113.5,87.5C 113.265,86.9033 112.765,86.5699 112,86.5C 110.242,88.7688 108.408,88.9354 106.5,87C 106.833,86.6667 107.167,86.3333 107.5,86C 106.552,85.5172 105.552,85.3505 104.5,85.5C 102.5,85.5 100.5,85.5 98.5,85.5C 98.9926,83.1944 99.3259,80.861 99.5,78.5C 103.059,78.7155 106.559,78.3822 110,77.5C 114.033,80.1988 116.033,78.8654 116,73.5C 117.073,74.2797 118.24,74.113 119.5,73C 119.167,72.6667 118.833,72.3333 118.5,72C 121.406,70.6815 124.406,70.3482 127.5,71C 125.981,72.2183 124.814,73.7183 124,75.5C 123.26,76.7494 123.427,77.7494 124.5,78.5 Z"/></g>
<g><path style="opacity:0.047" fill="#b3acac" d="M 172.5,75.5 C 178.409,76.4553 184.409,76.7886 190.5,76.5C 191.209,77.404 192.209,77.7373 193.5,77.5C 193.579,78.9305 193.246,80.2638 192.5,81.5C 190.071,82.8551 188.738,84.5217 188.5,86.5C 187.833,86.1667 187.167,85.8333 186.5,85.5C 185.176,87.3184 183.343,88.3184 181,88.5C 178.305,87.7446 175.972,86.4113 174,84.5C 172.93,84.528 172.097,84.8614 171.5,85.5C 171.44,86.0431 171.107,86.3764 170.5,86.5C 168.833,85.8333 167.167,85.1667 165.5,84.5C 162.411,77.9862 159.078,71.6529 155.5,65.5C 156.55,63.8983 155.883,63.065 153.5,63C 154.252,62.3292 154.586,61.4959 154.5,60.5C 155.167,59.1667 155.833,57.8333 156.5,56.5C 159.982,55.595 162.982,53.9283 165.5,51.5C 166.631,53.0745 166.798,54.7412 166,56.5C 162.64,59.4475 162.807,61.9475 166.5,64C 165.169,65.659 163.835,67.3257 162.5,69C 164.2,72.2324 166.034,75.399 168,78.5C 169.129,76.8588 170.629,75.8588 172.5,75.5 Z"/></g>
<g><path style="opacity:0.192" fill="#8e8c95" d="M 22.5,76.5 C 25.2282,76.1706 27.5615,76.8372 29.5,78.5C 27.847,78.6596 26.5137,79.3263 25.5,80.5C 21.2372,82.5547 19.2372,86.0547 19.5,91C 20.1667,91.3333 20.8333,91.6667 21.5,92C 20.0692,92.4652 18.9025,93.2986 18,94.5C 15.9077,93.3601 13.741,93.3601 11.5,94.5C 9.71447,92.0776 8.0478,92.0776 6.5,94.5C 5.06902,94.0234 3.73569,93.3567 2.5,92.5C 3.2739,91.2888 4.10723,91.2888 5,92.5C 6.72061,90.2893 8.72061,88.2893 11,86.5C 10.8071,84.9176 9.9738,83.5843 8.5,82.5C 10.1368,83.2178 11.8034,83.3845 13.5,83C 14.6226,81.9563 15.9559,81.2896 17.5,81C 16.8333,80.6667 16.1667,80.3333 15.5,80C 18.2813,79.4782 20.6146,78.3115 22.5,76.5 Z"/></g>
<g><path style="opacity:0.137" fill="#8b8489" d="M 319.5,73.5 C 319.5,79.8333 319.5,86.1667 319.5,92.5C 313.244,91.0808 307.411,91.4141 302,93.5C 298.942,91.4633 296.109,91.4633 293.5,93.5C 294.501,92.2113 294.334,90.8779 293,89.5C 292.132,93.7896 290.132,94.4563 287,91.5C 286.692,92.3081 286.192,92.9747 285.5,93.5C 280.445,93.361 275.111,93.361 269.5,93.5C 269.586,92.5041 269.252,91.6708 268.5,91C 262.817,90.8222 258.317,89.3222 255,86.5C 253.729,87.8825 252.229,88.8825 250.5,89.5C 250.414,88.5041 250.748,87.6708 251.5,87C 254.308,86.0068 257.141,85.1734 260,84.5C 261.594,86.2971 263.594,87.2971 266,87.5C 274.36,86.5911 282.194,84.2577 289.5,80.5C 289.5,78.8333 289.5,77.1667 289.5,75.5C 296.513,74.544 303.513,74.544 310.5,75.5C 313.566,74.9544 316.566,74.2877 319.5,73.5 Z"/></g>
<g><path style="opacity:0.141" fill="#d3cfce" d="M 61.5,73.5 C 63.8205,74.4185 65.9871,75.7518 68,77.5C 68.5,77 69,76.5 69.5,76C 72.8333,75.3333 76.1667,75.3333 79.5,76C 78.6634,77.0113 78.33,78.1779 78.5,79.5C 82.1369,80.775 85.8036,82.1083 89.5,83.5C 90.0715,84.9733 90.0715,86.64 89.5,88.5C 87.396,88.7989 85.396,88.4656 83.5,87.5C 82.6533,86.1552 81.4866,85.1552 80,84.5C 77.2382,89.4288 73.0715,91.4288 67.5,90.5C 64.2031,88.6413 60.5364,88.4746 56.5,90C 57.4581,91.1475 57.1247,92.1475 55.5,93C 51.0539,93.8102 46.8872,95.3102 43,97.5C 41.8333,97.3333 40.6667,97.1667 39.5,97C 35.2985,95.2478 30.6318,93.5812 25.5,92C 23.7465,89.4201 22.7465,86.5868 22.5,83.5C 23.5,83.5 24.5,83.5 25.5,83.5C 25.5,82.5 25.5,81.5 25.5,80.5C 26.5137,79.3263 27.847,78.6596 29.5,78.5C 30.5832,78.5394 31.5832,78.8728 32.5,79.5C 33.3265,76.1114 35.4932,74.7781 39,75.5C 42.635,74.7628 44.8017,76.0961 45.5,79.5C 49.5,78.1667 53.5,78.1667 57.5,79.5C 56.8872,76.0306 58.2206,74.0306 61.5,73.5 Z"/></g>
<g><path style="opacity:0.063" fill="#bfbaba" d="M 98.5,85.5 C 100.5,85.5 102.5,85.5 104.5,85.5C 104.755,89.4925 103.089,92.3258 99.5,94C 95.3952,94.4803 91.3952,93.9803 87.5,92.5C 84.9211,93.8883 84.9211,95.3883 87.5,97C 85.5273,97.4955 83.5273,97.6621 81.5,97.5C 81.5,95.8333 81.5,94.1667 81.5,92.5C 79.9397,92.4809 78.4397,92.1476 77,91.5C 76.3333,92.1667 75.6667,92.8333 75,93.5C 74.0546,93.0946 73.3879,92.428 73,91.5C 70.7655,92.9802 68.9321,92.6469 67.5,90.5C 73.0715,91.4288 77.2382,89.4288 80,84.5C 81.4866,85.1552 82.6533,86.1552 83.5,87.5C 85.396,88.4656 87.396,88.7989 89.5,88.5C 90.0715,86.64 90.0715,84.9733 89.5,83.5C 90.4959,83.5858 91.3292,83.2524 92,82.5C 92.4828,83.448 92.6495,84.448 92.5,85.5C 94.5,85.5 96.5,85.5 98.5,85.5 Z"/></g>
<g><path style="opacity:0.049" fill="#9f9c9c" d="M 190.5,76.5 C 193.5,76.5 196.5,76.5 199.5,76.5C 201.648,76.3894 201.981,77.056 200.5,78.5C 196.197,79.8086 193.197,82.4752 191.5,86.5C 193.199,86.6602 194.866,86.4935 196.5,86C 197.833,85.3333 197.833,84.6667 196.5,84C 197.662,83.1729 198.829,82.3396 200,81.5C 200.5,81.6667 201,81.8333 201.5,82C 201.045,84.3123 200.045,86.3123 198.5,88C 200.028,89.3613 201.695,90.528 203.5,91.5C 204.865,90.1931 206.198,90.1931 207.5,91.5C 210.393,93.0731 213.56,94.4064 217,95.5C 218.465,94.6705 219.965,94.5038 221.5,95C 222.833,95.6667 222.833,96.3333 221.5,97C 223.134,97.4935 224.801,97.6602 226.5,97.5C 226.189,98.4778 225.522,99.1445 224.5,99.5C 217.047,99.3391 209.547,98.6724 202,97.5C 201.536,98.0944 201.369,98.7611 201.5,99.5C 196.364,99.7075 191.364,99.0408 186.5,97.5C 186.29,100.97 185.123,100.97 183,97.5C 182.107,98.7112 181.274,98.7112 180.5,97.5C 181.833,96.5 181.833,95.5 180.5,94.5C 181.665,93.4164 182.998,92.5831 184.5,92C 180.938,90.7392 177.271,89.9059 173.5,89.5C 173.771,87.6203 173.104,86.287 171.5,85.5C 172.097,84.8614 172.93,84.528 174,84.5C 175.972,86.4113 178.305,87.7446 181,88.5C 183.343,88.3184 185.176,87.3184 186.5,85.5C 187.167,85.8333 187.833,86.1667 188.5,86.5C 188.738,84.5217 190.071,82.8551 192.5,81.5C 193.246,80.2638 193.579,78.9305 193.5,77.5C 192.209,77.7373 191.209,77.404 190.5,76.5 Z"/></g>
<g><path style="opacity:0.049" fill="#918097" d="M 319.5,92.5 C 319.5,93.8333 319.5,95.1667 319.5,96.5C 313.974,96.1786 308.64,96.5119 303.5,97.5C 301.958,96.6993 300.292,96.366 298.5,96.5C 298.631,95.7611 298.464,95.0944 298,94.5C 295.126,96.8909 293.626,96.5576 293.5,93.5C 296.109,91.4633 298.942,91.4633 302,93.5C 307.411,91.4141 313.244,91.0808 319.5,92.5 Z"/></g>
<g><path style="opacity:0.008" fill="#8c8080" d="M 126.5,92.5 C 122.493,96.1745 117.827,98.8412 112.5,100.5C 116,95.751 120.667,93.0844 126.5,92.5 Z"/></g>
<g><path style="opacity:0.039" fill="#938099" d="M 293.5,93.5 C 286.386,96.2944 279.219,98.2944 272,99.5C 270.094,97.5918 269.26,95.5918 269.5,93.5C 275.111,93.361 280.445,93.361 285.5,93.5C 286.192,92.9747 286.692,92.3081 287,91.5C 290.132,94.4563 292.132,93.7896 293,89.5C 294.334,90.8779 294.501,92.2113 293.5,93.5 Z"/></g>
<g><path style="opacity:0.011" fill="#818080" d="M 303.5,97.5 C 308.64,96.5119 313.974,96.1786 319.5,96.5C 319.5,99.1667 319.5,101.833 319.5,104.5C 306.158,104.567 292.825,104.9 279.5,105.5C 280.866,103.649 282.533,103.316 284.5,104.5C 285.799,103.306 287.132,102.306 288.5,101.5C 295.526,102.195 302.193,101.028 308.5,98C 306.866,97.5065 305.199,97.3398 303.5,97.5 Z"/></g>
<g><path style="opacity:0.014" fill="#878181" d="M 95.5,100.5 C 95.9175,101.222 96.5842,101.722 97.5,102C 96.4178,103.33 95.7512,104.83 95.5,106.5C 91.3656,107.485 87.0323,107.818 82.5,107.5C 81.3285,106.655 79.9952,105.989 78.5,105.5C 76.847,105.66 75.5137,106.326 74.5,107.5C 74.5,107.833 74.5,108.167 74.5,108.5C 49.2589,109.129 24.2589,110.129 -0.5,111.5C -0.5,110.833 -0.5,110.167 -0.5,109.5C 7.80403,107.526 16.4707,106.526 25.5,106.5C 28.5954,105.881 28.9288,104.881 26.5,103.5C 28.7886,101.408 31.2886,101.074 34,102.5C 40.4657,101.134 46.9657,99.8006 53.5,98.5C 56.9618,100.391 60.6284,100.891 64.5,100C 64.3601,98.9305 64.3601,97.7639 64.5,96.5C 74.344,97.7566 84.6774,99.09 95.5,100.5 Z"/></g>
<g><path style="opacity:0.031" fill="#a7a1a1" d="M 25.5,80.5 C 25.5,81.5 25.5,82.5 25.5,83.5C 24.5,83.5 23.5,83.5 22.5,83.5C 22.7465,86.5868 23.7465,89.4201 25.5,92C 30.6318,93.5812 35.2985,95.2478 39.5,97C 40.6667,97.1667 41.8333,97.3333 43,97.5C 46.8872,95.3102 51.0539,93.8102 55.5,93C 57.1247,92.1475 57.4581,91.1475 56.5,90C 60.5364,88.4746 64.2031,88.6413 67.5,90.5C 68.9321,92.6469 70.7655,92.9802 73,91.5C 73.3879,92.428 74.0546,93.0946 75,93.5C 75.6667,92.8333 76.3333,92.1667 77,91.5C 78.4397,92.1476 79.9397,92.4809 81.5,92.5C 81.5,94.1667 81.5,95.8333 81.5,97.5C 83.5273,97.6621 85.5273,97.4955 87.5,97C 84.9211,95.3883 84.9211,93.8883 87.5,92.5C 91.3952,93.9803 95.3952,94.4803 99.5,94C 103.089,92.3258 104.755,89.4925 104.5,85.5C 105.552,85.3505 106.552,85.5172 107.5,86C 107.167,86.3333 106.833,86.6667 106.5,87C 108.408,88.9354 110.242,88.7688 112,86.5C 112.765,86.5699 113.265,86.9033 113.5,87.5C 111.879,87.7869 110.879,88.7869 110.5,90.5C 111.326,91.451 111.492,92.451 111,93.5C 109.22,94.5937 107.386,95.5937 105.5,96.5C 105.709,97.086 106.043,97.586 106.5,98C 102.896,99.1539 99.2293,99.9872 95.5,100.5C 84.6774,99.09 74.344,97.7566 64.5,96.5C 64.3601,97.7639 64.3601,98.9305 64.5,100C 60.6284,100.891 56.9618,100.391 53.5,98.5C 46.9657,99.8006 40.4657,101.134 34,102.5C 31.2886,101.074 28.7886,101.408 26.5,103.5C 28.9288,104.881 28.5954,105.881 25.5,106.5C 23.877,105.174 22.877,103.841 22.5,102.5C 21.914,102.709 21.414,103.043 21,103.5C 17.886,99.8489 14.0526,98.8489 9.5,100.5C 7.67241,97.322 5.17241,96.322 2,97.5C 1.38277,98.4491 1.54943,99.2825 2.5,100C 1.42317,100.47 0.423175,100.303 -0.5,99.5C -0.5,94.5 -0.5,89.5 -0.5,84.5C 2.57393,84.1274 5.57393,83.4608 8.5,82.5C 9.9738,83.5843 10.8071,84.9176 11,86.5C 8.72061,88.2893 6.72061,90.2893 5,92.5C 4.10723,91.2888 3.2739,91.2888 2.5,92.5C 3.73569,93.3567 5.06902,94.0234 6.5,94.5C 8.0478,92.0776 9.71447,92.0776 11.5,94.5C 13.741,93.3601 15.9077,93.3601 18,94.5C 18.9025,93.2986 20.0692,92.4652 21.5,92C 20.8333,91.6667 20.1667,91.3333 19.5,91C 19.2372,86.0547 21.2372,82.5547 25.5,80.5 Z"/></g>
<g><path style="opacity:0.024" fill="#9781a5" d="M 201.5,99.5 C 201.369,98.7611 201.536,98.0944 202,97.5C 209.547,98.6724 217.047,99.3391 224.5,99.5C 225.522,99.1445 226.189,98.4778 226.5,97.5C 227.939,96.4908 229.272,96.8241 230.5,98.5C 233.64,98.054 236.307,96.7206 238.5,94.5C 241.254,94.8965 244.254,95.2298 247.5,95.5C 247.703,97.3904 247.037,98.8904 245.5,100C 230.812,100.747 216.146,100.581 201.5,99.5 Z"/></g>
<g><path style="opacity:0.016" fill="#bbbab9" d="M 298.5,96.5 C 300.292,96.366 301.958,96.6993 303.5,97.5C 305.199,97.3398 306.866,97.5065 308.5,98C 302.193,101.028 295.526,102.195 288.5,101.5C 285.287,101.19 282.287,101.523 279.5,102.5C 277.833,102.5 276.167,102.5 274.5,102.5C 271.5,103.833 268.5,103.833 265.5,102.5C 264.209,102.263 263.209,102.596 262.5,103.5C 261.292,102.766 259.959,102.433 258.5,102.5C 257.833,102.5 257.167,102.5 256.5,102.5C 266.175,101.592 278.675,99.9252 294,97.5C 296.087,98.895 297.587,98.5617 298.5,96.5 Z"/></g>
<g><path style="opacity:0.008" fill="#828080" d="M 112.5,100.5 C 109.018,103.236 105.018,104.903 100.5,105.5C 100.33,104.178 100.663,103.011 101.5,102C 105.086,100.892 108.753,100.392 112.5,100.5 Z"/></g>
<g><path style="opacity:0.008" fill="#fe807f" d="M 279.5,102.5 C 282.287,101.523 285.287,101.19 288.5,101.5C 287.132,102.306 285.799,103.306 284.5,104.5C 282.533,103.316 280.866,103.649 279.5,105.5C 278.167,105.5 276.833,105.5 275.5,105.5C 277.463,104.469 278.797,103.469 279.5,102.5 Z"/></g>
<g><path style="opacity:0.008" fill="#faf8e0" d="M 202.5,106.5 C 202.167,106.5 201.833,106.5 201.5,106.5C 201.539,105.244 201.039,104.244 200,103.5C 198.378,104.099 196.878,104.766 195.5,105.5C 195.167,105.5 194.833,105.5 194.5,105.5C 194.414,104.504 194.748,103.671 195.5,103C 198.634,102.21 201.634,102.543 204.5,104C 203.244,104.417 202.577,105.25 202.5,106.5 Z"/></g>
<g><path style="opacity:0.016" fill="#cdb5b3" d="M 208.5,103.5 C 211.976,102.357 215.642,102.19 219.5,103C 218.851,105.481 217.851,105.814 216.5,104C 213.854,103.503 211.187,103.336 208.5,103.5 Z"/></g>
<g><path style="opacity:0.008" fill="#fe807f" d="M 256.5,102.5 C 257.167,102.5 257.833,102.5 258.5,102.5C 258.611,103.117 258.944,103.617 259.5,104C 258.584,104.278 257.918,104.778 257.5,105.5C 256.596,104.791 256.263,103.791 256.5,102.5 Z"/></g>
<g><path style="opacity:0.008" fill="#fffeda" d="M 258.5,102.5 C 259.959,102.433 261.292,102.766 262.5,103.5C 262.5,104.5 262.5,105.5 262.5,106.5C 261.167,106.5 259.833,106.5 258.5,106.5C 258.5,105.833 258.167,105.5 257.5,105.5C 257.918,104.778 258.584,104.278 259.5,104C 258.944,103.617 258.611,103.117 258.5,102.5 Z"/></g>
<g><path style="opacity:0.008" fill="#feff7f" d="M 262.5,103.5 C 263.209,102.596 264.209,102.263 265.5,102.5C 266.853,103.526 267.853,104.859 268.5,106.5C 267.167,106.5 265.833,106.5 264.5,106.5C 265.674,104.632 265.007,103.632 262.5,103.5 Z"/></g>
<g><path style="opacity:0.008" fill="#ff8680" d="M 265.5,102.5 C 268.5,103.833 271.5,103.833 274.5,102.5C 273.833,103.5 273.167,104.5 272.5,105.5C 271.167,105.833 269.833,106.167 268.5,106.5C 267.853,104.859 266.853,103.526 265.5,102.5 Z"/></g>
<g><path style="opacity:0.008" fill="#feff7f" d="M 274.5,102.5 C 276.167,102.5 277.833,102.5 279.5,102.5C 278.797,103.469 277.463,104.469 275.5,105.5C 274.5,105.5 273.5,105.5 272.5,105.5C 273.167,104.5 273.833,103.5 274.5,102.5 Z"/></g>
<g><path style="opacity:0.024" fill="#b7b0b0" d="M 25.5,106.5 C 16.4707,106.526 7.80403,107.526 -0.5,109.5C -0.5,106.167 -0.5,102.833 -0.5,99.5C 0.423175,100.303 1.42317,100.47 2.5,100C 1.54943,99.2825 1.38277,98.4491 2,97.5C 5.17241,96.322 7.67241,97.322 9.5,100.5C 14.0526,98.8489 17.886,99.8489 21,103.5C 21.414,103.043 21.914,102.709 22.5,102.5C 22.877,103.841 23.877,105.174 25.5,106.5 Z"/></g>
<g><path style="opacity:0.008" fill="#fe807f" d="M 262.5,103.5 C 265.007,103.632 265.674,104.632 264.5,106.5C 263.833,106.5 263.167,106.5 262.5,106.5C 262.5,105.5 262.5,104.5 262.5,103.5 Z"/></g>
<g><path style="opacity:0.008" fill="#998180" d="M 201.5,106.5 C 199.5,106.167 197.5,105.833 195.5,105.5C 196.878,104.766 198.378,104.099 200,103.5C 201.039,104.244 201.539,105.244 201.5,106.5 Z"/></g>
<g><path style="opacity:0.008" fill="#fffeb6" d="M 78.5,105.5 C 77.713,107.104 76.3797,107.771 74.5,107.5C 75.5137,106.326 76.847,105.66 78.5,105.5 Z"/></g>
<g><path style="opacity:0.008" fill="#dc9b8c" d="M 78.5,105.5 C 79.9952,105.989 81.3285,106.655 82.5,107.5C 79.9039,108.265 77.2372,108.599 74.5,108.5C 74.5,108.167 74.5,107.833 74.5,107.5C 76.3797,107.771 77.713,107.104 78.5,105.5 Z"/></g>
</svg>
